<svg width="121" height="29" viewBox="0 0 121 29" fill="none" xmlns="http://www.w3.org/2000/svg">
<mask id="path-1-outside-1_3_38" maskUnits="userSpaceOnUse" x="0" y="0.764008" width="121" height="29" fill="black">
<rect fill="white" y="0.764008" width="121" height="29"/>
<path d="M39.3828 4.18165C40.0273 5.08399 40.6836 6.25001 41.3516 7.6797C42.0312 9.09766 42.6875 10.6563 43.3203 12.3555C43.9531 14.0547 44.5215 15.7949 45.0254 17.5762C45.541 19.3457 45.9629 21.0508 46.291 22.6914C46.6191 24.332 46.8066 25.791 46.8535 27.0684C46.8652 27.6895 46.584 28 46.0098 28H41.7559C41.2051 28 40.918 27.7246 40.8945 27.1738C40.8477 25.8613 40.6367 24.2676 40.2617 22.3926H30.6641C30.3359 24.2207 30.1484 25.8145 30.1016 27.1738C30.0781 27.7246 29.7793 28 29.2051 28H25.0391C24.8281 28 24.6523 27.9414 24.5117 27.8242C24.3711 27.6953 24.3066 27.4785 24.3184 27.1738C24.377 25.8731 24.5645 24.3965 24.8809 22.7442C25.209 21.0801 25.6309 19.3574 26.1465 17.5762C26.6621 15.7949 27.2363 14.0547 27.8691 12.3555C28.502 10.6445 29.1582 9.08009 29.8379 7.66212C30.5176 6.24415 31.1797 5.08399 31.8242 4.18165C32.1641 3.70118 32.5215 3.34962 32.8965 3.12696C33.2832 2.90431 33.7578 2.79298 34.3203 2.79298H36.8516C37.4258 2.79298 37.9062 2.90431 38.293 3.12696C38.6797 3.34962 39.043 3.70118 39.3828 4.18165ZM35.4102 8.34766C34.6367 9.57813 33.9277 11.0488 33.2832 12.7598C32.6387 14.4707 32.082 16.2285 31.6133 18.0332H39.2422C38.75 16.2285 38.1816 14.4707 37.5371 12.7598C36.8926 11.0488 36.2188 9.57813 35.5156 8.34766H35.4102Z"/>
<path d="M53.9023 26.3652C53.3984 25.416 52.8828 24.2149 52.3555 22.7617C51.8281 21.2969 51.3242 19.7266 50.8438 18.0508C50.3633 16.375 49.9355 14.7227 49.5605 13.0938C49.1855 11.4531 48.8867 9.96485 48.6641 8.62891C48.4531 7.29298 48.3477 6.25001 48.3477 5.50001C48.3477 5.19532 48.4121 4.95509 48.541 4.77931C48.8105 4.40431 49.1387 4.01759 49.5254 3.61915C49.9238 3.20899 50.3926 2.78126 50.9316 2.33595C51.1074 2.19532 51.2715 2.12501 51.4238 2.12501C51.5762 2.12501 51.7285 2.19532 51.8809 2.33595C52.4316 2.78126 52.9004 3.20899 53.2871 3.61915C53.6738 4.01759 54.002 4.40431 54.2715 4.77931C54.4004 4.95509 54.4648 5.2129 54.4648 5.55274V5.48243C54.4648 6.25587 54.5645 7.3047 54.7637 8.62891C54.9746 9.94141 55.2441 11.3828 55.5723 12.9531C55.9121 14.5117 56.2754 16.0527 56.6621 17.5762C57.0605 19.0879 57.4531 20.4356 57.8398 21.6192H57.9453C58.5781 20.0488 59.1699 18.3438 59.7207 16.5039C60.2715 14.6641 60.7871 12.7832 61.2676 10.8613C61.748 8.93946 62.1992 7.07032 62.6211 5.25392C62.75 4.72657 62.9668 4.36329 63.2715 4.16407C63.5879 3.95313 64.0801 3.84767 64.748 3.84767H66.8574C67.4551 3.84767 67.9004 3.93556 68.1934 4.11134C68.4863 4.28712 68.6973 4.66798 68.8262 5.25392C69.1309 6.61329 69.4766 8.04884 69.8633 9.56056C70.25 11.0723 70.6484 12.5781 71.0586 14.0781C71.4805 15.5664 71.9023 16.9609 72.3242 18.2617C72.7578 19.5625 73.168 20.6817 73.5547 21.6192H73.6602C74.1523 20.5059 74.5918 19.1934 74.9785 17.6816C75.377 16.1699 75.7109 14.6289 75.9805 13.0586C76.2617 11.4766 76.4727 10.0117 76.6133 8.66407C76.7656 7.31641 76.8418 6.25587 76.8418 5.48243V5.55274C76.8418 5.2129 76.9004 4.95509 77.0176 4.77931C77.5801 4.00587 78.3535 3.19142 79.3379 2.33595C79.5254 2.19532 79.6895 2.12501 79.8301 2.12501C79.959 2.12501 80.1113 2.19532 80.2871 2.33595C80.8145 2.78126 81.2656 3.20899 81.6406 3.61915C82.0156 4.01759 82.3379 4.40431 82.6074 4.77931C82.7246 4.96681 82.7832 5.21876 82.7832 5.53517C82.7832 6.51954 82.6719 7.70313 82.4492 9.08595C82.2266 10.4688 81.9219 11.9453 81.5352 13.5156C81.1602 15.0742 80.7324 16.6328 80.252 18.1914C79.7832 19.75 79.2852 21.209 78.7578 22.5684C78.2422 23.916 77.7324 25.0586 77.2285 25.9961C76.8066 26.7813 76.4258 27.3145 76.0859 27.5957C75.7578 27.8652 75.2832 28 74.6621 28H72.5C71.9727 28 71.5273 27.8828 71.1641 27.6484C70.8125 27.4141 70.4434 26.9746 70.0566 26.3301C69.7637 25.8379 69.4238 25.1465 69.0371 24.2559C68.6621 23.3652 68.2812 22.3984 67.8945 21.3555C67.5195 20.3008 67.1797 19.2813 66.875 18.2969C66.5703 17.3125 66.3477 16.4805 66.207 15.8008C66.043 15.0274 65.9023 14.2832 65.7852 13.5684C65.6797 12.8418 65.6152 12.2734 65.5918 11.8633H65.4512C65.4277 12.2734 65.3516 12.8418 65.2227 13.5684C65.1055 14.2832 64.959 15.0274 64.7832 15.8008C64.6074 16.5742 64.373 17.459 64.0801 18.4551C63.7871 19.4512 63.4648 20.4531 63.1133 21.4609C62.7617 22.4688 62.4102 23.4004 62.0586 24.2559C61.707 25.1113 61.3789 25.791 61.0742 26.2949C60.7344 26.8692 60.3594 27.2969 59.9492 27.5781C59.5508 27.8594 58.9941 28 58.2793 28H56.293C55.6719 28 55.2031 27.8887 54.8867 27.666C54.5703 27.4434 54.2422 27.0098 53.9023 26.3652ZM82.7832 5.48243V5.55274V5.53517C82.7832 5.51173 82.7832 5.49415 82.7832 5.48243ZM48.3477 5.48243V5.50001V5.55274V5.48243Z"/>
<path d="M1.04084 7.3358C1.04084 4.48267 0.485631 3.00002 3.46939 3.00002L16.9759 3.00001C19.2085 3.00001 21.3927 8.31976 22.3511 10.9983C22.7041 11.9851 22.8056 13.0387 22.7054 14.0819L22.1931 19.4162C22.0663 20.7356 21.6227 22.0075 20.8082 23.0532C19.2918 24.9999 16.6279 28 14.6122 28H3.46939C0.485631 28 1.04084 25.6871 1.04084 22.834V7.3358Z"/>
<path d="M2.79418 6.04431H18.3265V7.33582H2.79418V6.04431Z"/>
<path d="M2.79418 9.27309H18.3265V10.5646H2.79418V9.27309Z"/>
<path d="M2.79418 12.5019H18.3265V13.7934H2.79418V12.5019Z"/>
<path d="M2.79418 15.7307H18.3265V17.0222H2.79418V15.7307Z"/>
<path d="M2.79418 18.9594H18.3265V20.251H2.79418V18.9594Z"/>
<path d="M2.79418 22.834H18.3265V24.1255H2.79418V22.834Z"/>
<path d="M94.964 27H87.368V26.712C87.368 25.608 87.836 25.008 88.772 24.912L90.032 24.84V11.34L88.448 11.16C87.68 11.088 87.296 10.44 87.296 9.21601L93.704 8.49601V24.768L96.332 24.984C96.476 26.328 96.02 27 94.964 27ZM93.92 4.10401C93.92 4.77601 93.692 5.34001 93.236 5.79601C92.804 6.22801 92.252 6.44401 91.58 6.44401C90.932 6.44401 90.38 6.22801 89.924 5.79601C89.492 5.34001 89.276 4.77601 89.276 4.10401C89.276 3.43201 89.492 2.88001 89.924 2.44801C90.38 1.99201 90.932 1.76401 91.58 1.76401C92.252 1.76401 92.804 1.99201 93.236 2.44801C93.692 2.88001 93.92 3.43201 93.92 4.10401Z"/>
<path d="M117.81 27H110.322V26.712C110.322 25.608 110.79 25.008 111.726 24.912L112.986 24.84V15.804C112.986 12.972 111.822 11.556 109.494 11.556C108.534 11.556 107.706 11.712 107.01 12.024C106.314 12.312 105.57 12.804 104.778 13.5V24.768L107.334 24.984C107.478 26.328 107.022 27 105.966 27H98.4062V26.712C98.4062 26.136 98.4902 25.752 98.6582 25.56C98.9702 25.176 99.3662 24.96 99.8462 24.912L101.106 24.84V11.484L99.5222 11.304C98.7542 11.232 98.3702 10.584 98.3702 9.36001L104.202 8.64001L104.526 11.052H104.634C106.482 9.34801 108.33 8.49601 110.178 8.49601C112.026 8.49601 113.562 9.09601 114.786 10.296C116.034 11.472 116.658 13.308 116.658 15.804V24.768L119.178 24.984C119.322 26.328 118.866 27 117.81 27Z"/>
</mask>
<path d="M39.3828 4.18165C40.0273 5.08399 40.6836 6.25001 41.3516 7.6797C42.0312 9.09766 42.6875 10.6563 43.3203 12.3555C43.9531 14.0547 44.5215 15.7949 45.0254 17.5762C45.541 19.3457 45.9629 21.0508 46.291 22.6914C46.6191 24.332 46.8066 25.791 46.8535 27.0684C46.8652 27.6895 46.584 28 46.0098 28H41.7559C41.2051 28 40.918 27.7246 40.8945 27.1738C40.8477 25.8613 40.6367 24.2676 40.2617 22.3926H30.6641C30.3359 24.2207 30.1484 25.8145 30.1016 27.1738C30.0781 27.7246 29.7793 28 29.2051 28H25.0391C24.8281 28 24.6523 27.9414 24.5117 27.8242C24.3711 27.6953 24.3066 27.4785 24.3184 27.1738C24.377 25.8731 24.5645 24.3965 24.8809 22.7442C25.209 21.0801 25.6309 19.3574 26.1465 17.5762C26.6621 15.7949 27.2363 14.0547 27.8691 12.3555C28.502 10.6445 29.1582 9.08009 29.8379 7.66212C30.5176 6.24415 31.1797 5.08399 31.8242 4.18165C32.1641 3.70118 32.5215 3.34962 32.8965 3.12696C33.2832 2.90431 33.7578 2.79298 34.3203 2.79298H36.8516C37.4258 2.79298 37.9062 2.90431 38.293 3.12696C38.6797 3.34962 39.043 3.70118 39.3828 4.18165ZM35.4102 8.34766C34.6367 9.57813 33.9277 11.0488 33.2832 12.7598C32.6387 14.4707 32.082 16.2285 31.6133 18.0332H39.2422C38.75 16.2285 38.1816 14.4707 37.5371 12.7598C36.8926 11.0488 36.2188 9.57813 35.5156 8.34766H35.4102Z" fill="#CBD5E1"/>
<path d="M53.9023 26.3652C53.3984 25.416 52.8828 24.2149 52.3555 22.7617C51.8281 21.2969 51.3242 19.7266 50.8438 18.0508C50.3633 16.375 49.9355 14.7227 49.5605 13.0938C49.1855 11.4531 48.8867 9.96485 48.6641 8.62891C48.4531 7.29298 48.3477 6.25001 48.3477 5.50001C48.3477 5.19532 48.4121 4.95509 48.541 4.77931C48.8105 4.40431 49.1387 4.01759 49.5254 3.61915C49.9238 3.20899 50.3926 2.78126 50.9316 2.33595C51.1074 2.19532 51.2715 2.12501 51.4238 2.12501C51.5762 2.12501 51.7285 2.19532 51.8809 2.33595C52.4316 2.78126 52.9004 3.20899 53.2871 3.61915C53.6738 4.01759 54.002 4.40431 54.2715 4.77931C54.4004 4.95509 54.4648 5.2129 54.4648 5.55274V5.48243C54.4648 6.25587 54.5645 7.3047 54.7637 8.62891C54.9746 9.94141 55.2441 11.3828 55.5723 12.9531C55.9121 14.5117 56.2754 16.0527 56.6621 17.5762C57.0605 19.0879 57.4531 20.4356 57.8398 21.6192H57.9453C58.5781 20.0488 59.1699 18.3438 59.7207 16.5039C60.2715 14.6641 60.7871 12.7832 61.2676 10.8613C61.748 8.93946 62.1992 7.07032 62.6211 5.25392C62.75 4.72657 62.9668 4.36329 63.2715 4.16407C63.5879 3.95313 64.0801 3.84767 64.748 3.84767H66.8574C67.4551 3.84767 67.9004 3.93556 68.1934 4.11134C68.4863 4.28712 68.6973 4.66798 68.8262 5.25392C69.1309 6.61329 69.4766 8.04884 69.8633 9.56056C70.25 11.0723 70.6484 12.5781 71.0586 14.0781C71.4805 15.5664 71.9023 16.9609 72.3242 18.2617C72.7578 19.5625 73.168 20.6817 73.5547 21.6192H73.6602C74.1523 20.5059 74.5918 19.1934 74.9785 17.6816C75.377 16.1699 75.7109 14.6289 75.9805 13.0586C76.2617 11.4766 76.4727 10.0117 76.6133 8.66407C76.7656 7.31641 76.8418 6.25587 76.8418 5.48243V5.55274C76.8418 5.2129 76.9004 4.95509 77.0176 4.77931C77.5801 4.00587 78.3535 3.19142 79.3379 2.33595C79.5254 2.19532 79.6895 2.12501 79.8301 2.12501C79.959 2.12501 80.1113 2.19532 80.2871 2.33595C80.8145 2.78126 81.2656 3.20899 81.6406 3.61915C82.0156 4.01759 82.3379 4.40431 82.6074 4.77931C82.7246 4.96681 82.7832 5.21876 82.7832 5.53517C82.7832 6.51954 82.6719 7.70313 82.4492 9.08595C82.2266 10.4688 81.9219 11.9453 81.5352 13.5156C81.1602 15.0742 80.7324 16.6328 80.252 18.1914C79.7832 19.75 79.2852 21.209 78.7578 22.5684C78.2422 23.916 77.7324 25.0586 77.2285 25.9961C76.8066 26.7813 76.4258 27.3145 76.0859 27.5957C75.7578 27.8652 75.2832 28 74.6621 28H72.5C71.9727 28 71.5273 27.8828 71.1641 27.6484C70.8125 27.4141 70.4434 26.9746 70.0566 26.3301C69.7637 25.8379 69.4238 25.1465 69.0371 24.2559C68.6621 23.3652 68.2812 22.3984 67.8945 21.3555C67.5195 20.3008 67.1797 19.2813 66.875 18.2969C66.5703 17.3125 66.3477 16.4805 66.207 15.8008C66.043 15.0274 65.9023 14.2832 65.7852 13.5684C65.6797 12.8418 65.6152 12.2734 65.5918 11.8633H65.4512C65.4277 12.2734 65.3516 12.8418 65.2227 13.5684C65.1055 14.2832 64.959 15.0274 64.7832 15.8008C64.6074 16.5742 64.373 17.459 64.0801 18.4551C63.7871 19.4512 63.4648 20.4531 63.1133 21.4609C62.7617 22.4688 62.4102 23.4004 62.0586 24.2559C61.707 25.1113 61.3789 25.791 61.0742 26.2949C60.7344 26.8692 60.3594 27.2969 59.9492 27.5781C59.5508 27.8594 58.9941 28 58.2793 28H56.293C55.6719 28 55.2031 27.8887 54.8867 27.666C54.5703 27.4434 54.2422 27.0098 53.9023 26.3652ZM82.7832 5.48243V5.55274V5.53517C82.7832 5.51173 82.7832 5.49415 82.7832 5.48243ZM48.3477 5.48243V5.50001V5.55274V5.48243Z" fill="#CBD5E1"/>
<path d="M1.04084 7.3358C1.04084 4.48267 0.485631 3.00002 3.46939 3.00002L16.9759 3.00001C19.2085 3.00001 21.3927 8.31976 22.3511 10.9983C22.7041 11.9851 22.8056 13.0387 22.7054 14.0819L22.1931 19.4162C22.0663 20.7356 21.6227 22.0075 20.8082 23.0532C19.2918 24.9999 16.6279 28 14.6122 28H3.46939C0.485631 28 1.04084 25.6871 1.04084 22.834V7.3358Z" fill="#CBD5E1"/>
<path d="M2.79418 6.04431H18.3265V7.33582H2.79418V6.04431Z" fill="white"/>
<path d="M2.79418 9.27309H18.3265V10.5646H2.79418V9.27309Z" fill="white"/>
<path d="M2.79418 12.5019H18.3265V13.7934H2.79418V12.5019Z" fill="white"/>
<path d="M2.79418 15.7307H18.3265V17.0222H2.79418V15.7307Z" fill="white"/>
<path d="M2.79418 18.9594H18.3265V20.251H2.79418V18.9594Z" fill="white"/>
<path d="M2.79418 22.834H18.3265V24.1255H2.79418V22.834Z" fill="white"/>
<path d="M94.964 27H87.368V26.712C87.368 25.608 87.836 25.008 88.772 24.912L90.032 24.84V11.34L88.448 11.16C87.68 11.088 87.296 10.44 87.296 9.21601L93.704 8.49601V24.768L96.332 24.984C96.476 26.328 96.02 27 94.964 27ZM93.92 4.10401C93.92 4.77601 93.692 5.34001 93.236 5.79601C92.804 6.22801 92.252 6.44401 91.58 6.44401C90.932 6.44401 90.38 6.22801 89.924 5.79601C89.492 5.34001 89.276 4.77601 89.276 4.10401C89.276 3.43201 89.492 2.88001 89.924 2.44801C90.38 1.99201 90.932 1.76401 91.58 1.76401C92.252 1.76401 92.804 1.99201 93.236 2.44801C93.692 2.88001 93.92 3.43201 93.92 4.10401Z" fill="white"/>
<path d="M117.81 27H110.322V26.712C110.322 25.608 110.79 25.008 111.726 24.912L112.986 24.84V15.804C112.986 12.972 111.822 11.556 109.494 11.556C108.534 11.556 107.706 11.712 107.01 12.024C106.314 12.312 105.57 12.804 104.778 13.5V24.768L107.334 24.984C107.478 26.328 107.022 27 105.966 27H98.4062V26.712C98.4062 26.136 98.4902 25.752 98.6582 25.56C98.9702 25.176 99.3662 24.96 99.8462 24.912L101.106 24.84V11.484L99.5222 11.304C98.7542 11.232 98.3702 10.584 98.3702 9.36001L104.202 8.64001L104.526 11.052H104.634C106.482 9.34801 108.33 8.49601 110.178 8.49601C112.026 8.49601 113.562 9.09601 114.786 10.296C116.034 11.472 116.658 13.308 116.658 15.804V24.768L119.178 24.984C119.322 26.328 118.866 27 117.81 27Z" fill="white"/>
<path d="M39.3828 4.18165L38.5664 4.75912L38.5691 4.76289L39.3828 4.18165ZM41.3516 7.6797L40.4455 8.10301L40.4498 8.11194L41.3516 7.6797ZM45.0254 17.5762L44.0631 17.8484L44.0653 17.8559L45.0254 17.5762ZM46.8535 27.0684L47.8533 27.0495L47.8532 27.0406L47.8528 27.0317L46.8535 27.0684ZM40.8945 27.1738L39.8951 27.2095L39.8954 27.2164L40.8945 27.1738ZM40.2617 22.3926L41.2423 22.1965L41.0815 21.3926H40.2617V22.3926ZM30.6641 22.3926V21.3926H29.8276L29.6798 22.2159L30.6641 22.3926ZM30.1016 27.1738L31.1007 27.2164L31.101 27.2083L30.1016 27.1738ZM24.5117 27.8242L23.836 28.5614L23.8534 28.5773L23.8715 28.5924L24.5117 27.8242ZM24.3184 27.1738L23.3194 27.1288L23.3191 27.1354L24.3184 27.1738ZM24.8809 22.7442L23.8997 22.5507L23.8987 22.5561L24.8809 22.7442ZM27.8691 12.3555L28.8063 12.7045L28.807 12.7024L27.8691 12.3555ZM31.8242 4.18165L32.638 4.76289L32.6406 4.75911L31.8242 4.18165ZM32.8965 3.12696L32.3975 2.26026L32.3859 2.26711L32.8965 3.12696ZM35.4102 8.34766V7.34766H34.8576L34.5635 7.81549L35.4102 8.34766ZM31.6133 18.0332L30.6454 17.7818L30.3204 19.0332H31.6133V18.0332ZM39.2422 18.0332V19.0332H40.5514L40.207 17.7701L39.2422 18.0332ZM35.5156 8.34766L36.3839 7.85153L36.0959 7.34766H35.5156V8.34766ZM53.9023 26.3652L54.7869 25.8988L54.7856 25.8964L53.9023 26.3652ZM52.3555 22.7617L51.4146 23.1004L51.4155 23.1029L52.3555 22.7617ZM49.5605 13.0938L48.5857 13.3166L48.586 13.3181L49.5605 13.0938ZM48.6641 8.62891L47.6763 8.78488L47.6777 8.79331L48.6641 8.62891ZM48.541 4.77931L49.3475 5.3707L49.353 5.36294L48.541 4.77931ZM49.5254 3.61915L48.8081 2.92236L48.8078 2.92267L49.5254 3.61915ZM50.9316 2.33595L50.3069 1.55508L50.3008 1.55998L50.2948 1.56498L50.9316 2.33595ZM51.8809 2.33595L51.2026 3.07075L51.2267 3.09297L51.2521 3.11358L51.8809 2.33595ZM53.2871 3.61915L52.5595 4.30516L52.5645 4.31043L52.5695 4.31562L53.2871 3.61915ZM54.2715 4.77931L53.4594 5.36297L53.4651 5.37067L54.2715 4.77931ZM54.7637 8.62891L53.7748 8.77769L53.7763 8.78759L54.7637 8.62891ZM55.5723 12.9531L54.5934 13.1577L54.5952 13.1662L55.5723 12.9531ZM56.6621 17.5762L55.6928 17.8222L55.6951 17.831L56.6621 17.5762ZM57.8398 21.6192L56.8893 21.9297L57.1146 22.6192H57.8398V21.6192ZM57.9453 21.6192V22.6192H58.6205L58.8728 21.9929L57.9453 21.6192ZM62.6211 5.25392L61.6496 5.01645L61.647 5.02768L62.6211 5.25392ZM63.2715 4.16407L63.8188 5.00107L63.8262 4.99612L63.2715 4.16407ZM68.8262 5.25392L67.8495 5.46878L67.8504 5.47263L68.8262 5.25392ZM71.0586 14.0781L70.094 14.3419L70.0965 14.3509L71.0586 14.0781ZM72.3242 18.2617L71.373 18.5702L71.3755 18.578L72.3242 18.2617ZM73.5547 21.6192L72.6302 22.0005L72.8854 22.6192H73.5547V21.6192ZM73.6602 21.6192V22.6192H74.3114L74.5748 22.0235L73.6602 21.6192ZM74.9785 17.6816L74.0115 17.4268L74.0097 17.4338L74.9785 17.6816ZM75.9805 13.0586L74.9959 12.8836L74.9949 12.8894L75.9805 13.0586ZM76.6133 8.66407L75.6196 8.55174L75.6187 8.56029L76.6133 8.66407ZM77.0176 4.77931L76.2088 4.19113L76.1968 4.20763L76.1855 4.22461L77.0176 4.77931ZM79.3379 2.33595L78.7379 1.53595L78.7091 1.55754L78.6819 1.58115L79.3379 2.33595ZM80.2871 2.33595L80.9323 1.57192L80.9222 1.56336L80.9118 1.55508L80.2871 2.33595ZM81.6406 3.61915L80.9026 4.29392L80.9075 4.29925L80.9124 4.30451L81.6406 3.61915ZM82.6074 4.77931L83.4554 4.24931L83.4383 4.22191L83.4194 4.19567L82.6074 4.77931ZM81.5352 13.5156L80.5642 13.2765L80.5629 13.2817L81.5352 13.5156ZM80.252 18.1914L79.2963 17.8968L79.2943 17.9034L80.252 18.1914ZM78.7578 22.5684L77.8255 22.2067L77.8238 22.211L78.7578 22.5684ZM77.2285 25.9961L76.3477 25.5227L76.3476 25.5228L77.2285 25.9961ZM76.0859 27.5957L76.7207 28.3684L76.7235 28.3661L76.0859 27.5957ZM71.1641 27.6484L70.6094 28.4805L70.6156 28.4847L70.6219 28.4887L71.1641 27.6484ZM70.0566 26.3301L69.1973 26.8416L69.1991 26.8446L70.0566 26.3301ZM69.0371 24.2559L68.1154 24.6439L68.1198 24.6542L69.0371 24.2559ZM67.8945 21.3555L66.9522 21.6905L66.9569 21.7031L67.8945 21.3555ZM66.207 15.8008L67.1863 15.5982L67.1853 15.5933L66.207 15.8008ZM65.7852 13.5684L64.7955 13.712L64.7968 13.7211L64.7983 13.7301L65.7852 13.5684ZM65.5918 11.8633L66.5902 11.8062L66.5363 10.8633H65.5918V11.8633ZM65.4512 11.8633V10.8633H64.5067L64.4528 11.8062L65.4512 11.8633ZM65.2227 13.5684L64.2379 13.3937L64.2358 13.4066L65.2227 13.5684ZM61.0742 26.2949L60.2184 25.7775L60.2136 25.7856L61.0742 26.2949ZM59.9492 27.5781L59.3836 26.7533L59.3725 26.7612L59.9492 27.5781ZM16.9759 3.00001L16.9759 2.00001L16.9759 2.00001L16.9759 3.00001ZM3.46939 3.00002L3.46939 4.00002L3.46939 4.00002L3.46939 3.00002ZM2.79418 6.04431V5.04431H1.79418V6.04431H2.79418ZM18.3265 6.04431H19.3265V5.04431H18.3265V6.04431ZM18.3265 7.33582V8.33582H19.3265V7.33582H18.3265ZM2.79418 7.33582H1.79418V8.33582H2.79418V7.33582ZM2.79418 9.27309V8.27309H1.79418V9.27309H2.79418ZM18.3265 9.27309H19.3265V8.27309H18.3265V9.27309ZM18.3265 10.5646V11.5646H19.3265V10.5646H18.3265ZM2.79418 10.5646H1.79418V11.5646H2.79418V10.5646ZM2.79418 12.5019V11.5019H1.79418V12.5019H2.79418ZM18.3265 12.5019H19.3265V11.5019H18.3265V12.5019ZM18.3265 13.7934V14.7934H19.3265V13.7934H18.3265ZM2.79418 13.7934H1.79418V14.7934H2.79418V13.7934ZM2.79418 15.7307V14.7307H1.79418V15.7307H2.79418ZM18.3265 15.7307H19.3265V14.7307H18.3265V15.7307ZM18.3265 17.0222V18.0222H19.3265V17.0222H18.3265ZM2.79418 17.0222H1.79418V18.0222H2.79418V17.0222ZM2.79418 18.9594V17.9594H1.79418V18.9594H2.79418ZM18.3265 18.9594H19.3265V17.9594H18.3265V18.9594ZM18.3265 20.251V21.251H19.3265V20.251H18.3265ZM2.79418 20.251H1.79418V21.251H2.79418V20.251ZM2.79418 22.834V21.834H1.79418V22.834H2.79418ZM18.3265 22.834H19.3265V21.834H18.3265V22.834ZM18.3265 24.1255V25.1255H19.3265V24.1255H18.3265ZM2.79418 24.1255H1.79418V25.1255H2.79418V24.1255ZM22.7054 14.0819L21.71 13.9863L21.71 13.9863L22.7054 14.0819ZM22.3511 10.9983L21.4095 11.3352L22.3511 10.9983ZM22.1931 19.4162L23.1885 19.5118L23.1885 19.5118L22.1931 19.4162ZM20.8082 23.0532L20.0193 22.4387L20.0193 22.4387L20.8082 23.0532ZM87.368 27H86.368V28H87.368V27ZM88.772 24.912L88.715 23.9136L88.6924 23.9149L88.67 23.9172L88.772 24.912ZM90.032 24.84L90.089 25.8384L91.032 25.7845V24.84H90.032ZM90.032 11.34H91.032V10.4472L90.1449 10.3464L90.032 11.34ZM88.448 11.16L88.5609 10.1664L88.5511 10.1653L88.5413 10.1644L88.448 11.16ZM87.296 9.21601L87.1843 8.22226L86.296 8.32208V9.21601H87.296ZM93.704 8.49601H94.704V7.37736L93.5923 7.50226L93.704 8.49601ZM93.704 24.768H92.704V25.6892L93.6221 25.7646L93.704 24.768ZM96.332 24.984L97.3263 24.8775L97.2382 24.0551L96.4139 23.9874L96.332 24.984ZM93.236 5.79601L92.5289 5.0889L92.5289 5.0889L93.236 5.79601ZM89.924 5.79601L89.1981 6.48375L89.2166 6.50337L89.2363 6.52196L89.924 5.79601ZM89.924 2.44801L89.2169 1.7409L89.2169 1.7409L89.924 2.44801ZM93.236 2.44801L92.51 3.13575L92.5286 3.15537L92.5483 3.17396L93.236 2.44801ZM110.322 27H109.322V28H110.322V27ZM111.726 24.912L111.669 23.9136L111.647 23.9149L111.624 23.9172L111.726 24.912ZM112.986 24.84L113.043 25.8384L113.986 25.7845V24.84H112.986ZM107.01 12.024L107.393 12.948L107.406 12.9425L107.419 12.9365L107.01 12.024ZM104.778 13.5L104.118 12.7488L103.778 13.0475V13.5H104.778ZM104.778 24.768H103.778V25.6871L104.694 25.7645L104.778 24.768ZM107.334 24.984L108.329 24.8775L108.241 24.057L107.418 23.9876L107.334 24.984ZM98.4062 27H97.4062V28H98.4062V27ZM98.6582 25.56L99.4108 26.2185L99.4228 26.2048L99.4343 26.1906L98.6582 25.56ZM99.8462 24.912L99.7892 23.9136L99.7679 23.9149L99.7467 23.917L99.8462 24.912ZM101.106 24.84L101.163 25.8384L102.106 25.7845V24.84H101.106ZM101.106 11.484H102.106V10.5912L101.219 10.4904L101.106 11.484ZM99.5222 11.304L99.6351 10.3104L99.6254 10.3093L99.6156 10.3084L99.5222 11.304ZM98.3702 9.36001L98.2477 8.36754L97.3702 8.47587V9.36001H98.3702ZM104.202 8.64001L105.193 8.50687L105.062 7.52632L104.08 7.64754L104.202 8.64001ZM104.526 11.052L103.535 11.1851L103.652 12.052H104.526V11.052ZM104.634 11.052V12.052H105.025L105.312 11.7872L104.634 11.052ZM114.786 10.296L114.086 11.0101L114.093 11.017L114.1 11.0238L114.786 10.296ZM116.658 24.768H115.658V25.686L116.573 25.7644L116.658 24.768ZM119.178 24.984L120.173 24.8775L120.085 24.058L119.264 23.9877L119.178 24.984ZM38.5691 4.76289C39.1667 5.59957 39.7936 6.70751 40.4456 8.10299L42.2576 7.2564C41.5736 5.79251 40.888 4.56842 40.1965 3.60041L38.5691 4.76289ZM40.4498 8.11194C41.1147 9.49897 41.7594 11.0294 42.3832 12.7045L44.2574 12.0065C43.6156 10.2832 42.9478 8.69636 42.2533 7.24745L40.4498 8.11194ZM42.3832 12.7045C43.0064 14.3779 43.5664 16.0925 44.0632 17.8484L45.9876 17.304C45.4765 15.4973 44.8998 13.7315 44.2574 12.0065L42.3832 12.7045ZM44.0653 17.8559C44.5737 19.6006 44.9885 21.2777 45.3104 22.8875L47.2716 22.4953C46.9373 20.8239 46.5083 19.0908 45.9855 17.2964L44.0653 17.8559ZM45.3104 22.8875C45.6311 24.4907 45.8098 25.8947 45.8542 27.105L47.8528 27.0317C47.8035 25.6873 47.6072 24.1734 47.2716 22.4953L45.3104 22.8875ZM45.8537 27.0872C45.8552 27.1689 45.846 27.2007 45.8468 27.1981C45.8487 27.1914 45.8635 27.1474 45.9102 27.0958C45.9585 27.0424 46.0115 27.0137 46.0443 27.0018C46.0711 26.992 46.0661 27 46.0098 27V29C46.4705 29 47 28.8719 47.3926 28.4384C47.7709 28.0206 47.8617 27.4938 47.8533 27.0495L45.8537 27.0872ZM46.0098 27H41.7559V29H46.0098V27ZM41.7559 27C41.699 27 41.6869 26.9926 41.7045 26.9984C41.7263 27.0055 41.7722 27.0263 41.8197 27.0718C41.8671 27.1173 41.8896 27.1622 41.8976 27.1834C41.904 27.2004 41.8961 27.1884 41.8936 27.1313L39.8954 27.2164C39.9138 27.6487 40.0439 28.1398 40.4352 28.5151C40.8267 28.8906 41.3229 29 41.7559 29V27ZM41.8939 27.1381C41.8444 25.7535 41.6236 24.1028 41.2423 22.1965L39.2811 22.5887C39.6499 24.4324 39.8509 25.9692 39.8952 27.2095L41.8939 27.1381ZM40.2617 21.3926H30.6641V23.3926H40.2617V21.3926ZM29.6798 22.2159C29.3461 24.0753 29.1511 25.7186 29.1022 27.1394L31.101 27.2083C31.1457 25.9103 31.3258 24.3661 31.6483 22.5693L29.6798 22.2159ZM29.1025 27.1313C29.1002 27.1847 29.0926 27.1926 29.1007 27.1719C29.1106 27.1466 29.1351 27.1015 29.1822 27.0581C29.2285 27.0155 29.2701 26.9989 29.2833 26.9947C29.2926 26.9918 29.2714 27 29.2051 27V29C29.6397 29 30.1393 28.8959 30.5375 28.5288C30.9427 28.1554 31.0818 27.6594 31.1007 27.2164L29.1025 27.1313ZM29.2051 27H25.0391V29H29.2051V27ZM25.0391 27C25.0264 27 25.0382 26.9983 25.0653 27.0074C25.0942 27.017 25.1252 27.0338 25.1519 27.056L23.8715 28.5924C24.2188 28.8818 24.6318 29 25.0391 29V27ZM25.1874 27.0871C25.2735 27.166 25.3067 27.2473 25.3164 27.28C25.3241 27.3058 25.3146 27.2908 25.3176 27.2123L23.3191 27.1354C23.3028 27.56 23.3772 28.1408 23.836 28.5614L25.1874 27.0871ZM25.3173 27.2188C25.3733 25.9776 25.5532 24.5502 25.863 22.9322L23.8987 22.5561C23.5757 24.2428 23.3806 25.7685 23.3194 27.1288L25.3173 27.2188ZM25.862 22.9376C26.184 21.3045 26.5988 19.6101 27.107 17.8542L25.1859 17.2981C24.663 19.1047 24.234 20.8557 23.8998 22.5507L25.862 22.9376ZM27.107 17.8542C27.6159 16.0964 28.1823 14.3798 28.8063 12.7045L26.932 12.0065C26.2903 13.7296 25.7083 15.4935 25.1859 17.2981L27.107 17.8542ZM28.807 12.7024C29.4308 11.016 30.0752 9.48047 30.7396 8.09436L28.9361 7.22987C28.2412 8.6797 27.5731 10.2731 26.9312 12.0086L28.807 12.7024ZM30.7396 8.09436C31.4038 6.70882 32.0377 5.60327 32.638 4.76289L31.0105 3.60041C30.3217 4.56472 29.6314 5.77947 28.9361 7.22987L30.7396 8.09436ZM32.6406 4.75911C32.9262 4.35537 33.187 4.11746 33.407 3.98682L32.3859 2.26711C31.856 2.58177 31.4019 3.047 31.0078 3.60418L32.6406 4.75911ZM33.3954 3.99358C33.5957 3.8783 33.888 3.79298 34.3203 3.79298V1.79298C33.6276 1.79298 32.9707 1.93031 32.3975 2.26034L33.3954 3.99358ZM34.3203 3.79298H36.8516V1.79298H34.3203V3.79298ZM36.8516 3.79298C37.2998 3.79298 37.5966 3.87994 37.794 3.99358L38.7919 2.26034C38.2159 1.92867 37.5518 1.79298 36.8516 1.79298V3.79298ZM37.794 3.99358C38.0219 4.12481 38.2847 4.36089 38.5664 4.75911L40.1992 3.60418C39.8012 3.04147 39.3374 2.57442 38.7919 2.26034L37.794 3.99358ZM34.5635 7.81549C33.7467 9.11502 33.0098 10.6489 32.3474 12.4072L34.219 13.1123C34.8457 11.4488 35.5268 10.0412 36.2568 8.87984L34.5635 7.81549ZM32.3474 12.4072C31.6902 14.152 31.1229 15.9436 30.6454 17.7818L32.5812 18.2846C33.0412 16.5135 33.5872 14.7895 34.219 13.1123L32.3474 12.4072ZM31.6133 19.0332H39.2422V17.0332H31.6133V19.0332ZM40.207 17.7701C39.7067 15.9359 39.1287 14.1482 38.4729 12.4072L36.6013 13.1123C37.2345 14.7932 37.7933 16.5212 38.2774 18.2963L40.207 17.7701ZM38.4729 12.4072C37.8148 10.6601 37.1195 9.13897 36.3839 7.85153L34.6474 8.8438C35.318 10.0173 35.9704 11.4375 36.6013 13.1123L38.4729 12.4072ZM35.5156 7.34766H35.4102V9.34766H35.5156V7.34766ZM54.7856 25.8964C54.3108 25.0019 53.8132 23.8471 53.2955 22.4206L51.4155 23.1029C51.9525 24.5826 52.4861 25.8302 53.0191 26.8341L54.7856 25.8964ZM53.2964 22.423C52.7773 20.9813 52.2801 19.4322 51.805 17.7752L49.8825 18.3264C50.3683 20.021 50.8789 21.6125 51.4146 23.1004L53.2964 22.423ZM51.805 17.7752C51.3292 16.1156 50.9059 14.4804 50.5351 12.8694L48.586 13.3181C48.9652 14.9649 49.3974 16.6344 49.8825 18.3264L51.805 17.7752ZM50.5354 12.8709C50.1638 11.2452 49.8692 9.77686 49.6505 8.46452L47.6777 8.79331C47.9043 10.1528 48.2073 11.661 48.5857 13.3166L50.5354 12.8709ZM49.6518 8.47295C49.4437 7.15465 49.3477 6.17203 49.3477 5.50001H47.3477C47.3477 6.32799 47.4626 7.4313 47.6763 8.78488L49.6518 8.47295ZM49.3477 5.50001C49.3477 5.41633 49.3567 5.36962 49.3618 5.35045C49.3664 5.33328 49.3658 5.34558 49.3474 5.37067L47.7346 4.18794C47.4387 4.59151 47.3477 5.06501 47.3477 5.50001H49.3477ZM49.353 5.36294C49.5889 5.03484 49.8839 4.68562 50.243 4.31562L48.8078 2.92267C48.3935 3.34955 48.0322 3.77377 47.729 4.19567L49.353 5.36294ZM50.2427 4.31594C50.6108 3.93695 51.0517 3.53388 51.5685 3.10691L50.2948 1.56498C49.7335 2.02863 49.2368 2.48104 48.8081 2.92236L50.2427 4.31594ZM51.5563 3.11682C51.5913 3.08884 51.5995 3.08873 51.5804 3.09689C51.5591 3.10604 51.5043 3.12501 51.4238 3.12501V1.12501C50.9583 1.12501 50.5784 1.33789 50.3069 1.55508L51.5563 3.11682ZM51.4238 3.12501C51.3412 3.12501 51.275 3.10498 51.2333 3.0857C51.1952 3.06813 51.1859 3.05532 51.2026 3.07075L52.5591 1.60114C52.2896 1.35236 51.9065 1.12501 51.4238 1.12501V3.12501ZM51.2521 3.11358C51.7764 3.53742 52.2103 3.93477 52.5595 4.30516L54.0147 2.93314C53.5905 2.48321 53.0869 2.02509 52.5096 1.55832L51.2521 3.11358ZM52.5695 4.31562C52.9286 4.68562 53.2236 5.03484 53.4595 5.36294L55.0835 4.19567C54.7803 3.77377 54.419 3.34955 54.0047 2.92267L52.5695 4.31562ZM53.4651 5.37067C53.438 5.33381 53.4389 5.31711 53.4464 5.34704C53.4542 5.37819 53.4648 5.44311 53.4648 5.55274H55.4648C55.4648 5.1112 55.3853 4.60714 55.0779 4.18794L53.4651 5.37067ZM55.4648 5.55274V5.48243H53.4648V5.55274H55.4648ZM53.4648 5.48243C53.4648 6.32886 53.5727 7.43424 53.7748 8.77768L55.7525 8.48015C55.5562 7.17515 55.4648 6.18288 55.4648 5.48243H53.4648ZM53.7763 8.78759C53.9902 10.1182 54.2627 11.5751 54.5934 13.1577L56.5511 12.7486C56.2256 11.1905 55.959 9.76464 55.751 8.47024L53.7763 8.78759ZM54.5952 13.1662C54.9374 14.7356 55.3033 16.2877 55.6929 17.8222L57.6314 17.3301C57.2475 15.8178 56.8868 14.2878 56.5493 12.7401L54.5952 13.1662ZM55.6951 17.831C56.0973 19.357 56.4953 20.7238 56.8893 21.9297L58.7904 21.3086C58.411 20.1473 58.0238 18.8188 57.6291 17.3213L55.6951 17.831ZM57.8398 22.6192H57.9453V20.6192H57.8398V22.6192ZM58.8728 21.9929C59.5185 20.3906 60.1202 18.6562 60.6787 16.7907L58.7627 16.2171C58.2196 18.0314 57.6377 19.7071 57.0178 21.2454L58.8728 21.9929ZM60.6787 16.7907C61.234 14.9358 61.7537 13.0401 62.2377 11.1039L60.2974 10.6188C59.8206 12.5263 59.309 14.3924 58.7627 16.2171L60.6787 16.7907ZM62.2377 11.1039C62.7195 9.17691 63.172 7.30233 63.5952 5.48015L61.647 5.02768C61.2265 6.83832 60.7766 8.70202 60.2974 10.6188L62.2377 11.1039ZM63.5925 5.49137C63.6902 5.09172 63.8103 5.00656 63.8187 5.00104L62.7242 3.3271C62.1233 3.72002 61.8098 4.36143 61.6497 5.01646L63.5925 5.49137ZM63.8262 4.99612C63.8955 4.94992 64.1463 4.84767 64.748 4.84767V2.84767C64.0138 2.84767 63.2803 2.95634 62.7168 3.33202L63.8262 4.99612ZM64.748 4.84767H66.8574V2.84767H64.748V4.84767ZM66.8574 4.84767C67.3922 4.84767 67.6185 4.93259 67.6789 4.96883L68.7079 3.25384C68.1823 2.93852 67.518 2.84767 66.8574 2.84767V4.84767ZM67.6789 4.96883C67.6385 4.94463 67.6533 4.9353 67.6965 5.01332C67.7413 5.09415 67.7986 5.23726 67.8495 5.46878L69.8028 5.03905C69.6564 4.37368 69.3629 3.64686 68.7079 3.25384L67.6789 4.96883ZM67.8504 5.47263C68.1575 6.84282 68.5056 8.28813 68.8945 9.80839L70.8321 9.31272C70.4476 7.80955 70.1042 6.38376 69.802 5.0352L67.8504 5.47263ZM68.8945 9.80839C69.2826 11.3254 69.6824 12.8366 70.094 14.3419L72.0232 13.8144C71.6145 12.3197 71.2174 10.8191 70.8321 9.31272L68.8945 9.80839ZM70.0965 14.3509C70.5213 15.8496 70.9468 17.2562 71.373 18.5702L73.2754 17.9532C72.8579 16.6657 72.4396 15.2832 72.0207 13.8054L70.0965 14.3509ZM71.3755 18.578C71.8141 19.8936 72.2322 21.0356 72.6302 22.0005L74.4791 21.2378C74.1037 20.3277 73.7015 19.2314 73.2729 17.9455L71.3755 18.578ZM73.5547 22.6192H73.6602V20.6192H73.5547V22.6192ZM74.5748 22.0235C75.0945 20.8478 75.5505 19.4807 75.9473 17.9295L74.0097 17.4338C73.6331 18.9061 73.2102 20.1639 72.7456 21.2148L74.5748 22.0235ZM75.9455 17.9365C76.3515 16.396 76.6917 14.8264 76.9661 13.2278L74.9949 12.8894C74.7302 14.4315 74.4024 15.9439 74.0115 17.4268L75.9455 17.9365ZM76.965 13.2336C77.2497 11.6322 77.4644 10.1433 77.6079 8.76786L75.6187 8.56029C75.481 9.88019 75.2737 11.321 74.9959 12.8836L76.965 13.2336ZM77.607 8.7764C77.7609 7.41471 77.8418 6.31117 77.8418 5.48243H75.8418C75.8418 6.20057 75.7704 7.21812 75.6196 8.55174L77.607 8.7764ZM75.8418 5.48243V5.55274H77.8418V5.48243H75.8418ZM77.8418 5.55274C77.8418 5.43742 77.852 5.36513 77.8609 5.32612C77.8697 5.2873 77.8732 5.29859 77.8496 5.33401L76.1855 4.22461C75.9107 4.63682 75.8418 5.12508 75.8418 5.55274H77.8418ZM77.8263 5.36748C78.3316 4.67271 79.0474 3.91322 79.9938 3.09075L78.6819 1.58115C77.6596 2.46961 76.8286 3.33903 76.2088 4.19113L77.8263 5.36748ZM79.9379 3.13595C79.9865 3.09946 80.0053 3.09268 79.9955 3.09689C79.9853 3.10125 79.9264 3.12501 79.8301 3.12501V1.12501C79.3709 1.12501 78.9935 1.34427 78.7379 1.53595L79.9379 3.13595ZM79.8301 3.12501C79.7131 3.12501 79.6392 3.09365 79.622 3.0857C79.6046 3.0777 79.6177 3.08103 79.6624 3.11682L80.9118 1.55508C80.6776 1.36772 80.302 1.12501 79.8301 1.12501V3.12501ZM79.6419 3.09998C80.1439 3.52389 80.5625 3.92198 80.9026 4.29392L82.3787 2.94438C81.9687 2.49601 81.485 2.03863 80.9323 1.57192L79.6419 3.09998ZM80.9124 4.30451C81.2626 4.67659 81.5557 5.02946 81.7954 5.36294L83.4194 4.19567C83.1201 3.77915 82.7686 3.35859 82.3688 2.93378L80.9124 4.30451ZM81.7594 5.3093C81.7433 5.28343 81.7832 5.3295 81.7832 5.53517H83.7832C83.7832 5.10802 83.706 4.65018 83.4554 4.24931L81.7594 5.3093ZM81.7832 5.53517C81.7832 6.44925 81.6794 7.57669 81.4619 8.92698L83.4365 9.24492C83.6644 7.82958 83.7832 6.58983 83.7832 5.53517H81.7832ZM81.4619 8.92698C81.2442 10.2791 80.9453 11.7287 80.5642 13.2765L82.5061 13.7548C82.8984 12.1619 83.2089 10.6584 83.4365 9.24492L81.4619 8.92698ZM80.5629 13.2817C80.1929 14.8196 79.7707 16.3579 79.2963 17.8968L81.2076 18.486C81.6941 16.9077 82.1274 15.3289 82.5074 13.7496L80.5629 13.2817ZM79.2943 17.9034C78.8322 19.4399 78.3425 20.8741 77.8255 22.2067L79.6901 22.93C80.2279 21.5439 80.7342 20.0601 81.2096 18.4794L79.2943 17.9034ZM77.8238 22.211C77.3185 23.5319 76.8258 24.6332 76.3477 25.5227L78.1093 26.4695C78.6391 25.484 79.1659 24.3002 79.6918 22.9257L77.8238 22.211ZM76.3476 25.5228C75.9373 26.2864 75.6313 26.6739 75.4484 26.8253L76.7235 28.3661C77.2203 27.955 77.676 27.2761 78.1094 26.4694L76.3476 25.5228ZM75.4512 26.823C75.3685 26.8909 75.1557 27 74.6621 27V29C75.4107 29 76.1471 28.8396 76.7207 28.3684L75.4512 26.823ZM74.6621 27H72.5V29H74.6621V27ZM72.5 27C72.1224 27 71.8755 26.9174 71.7062 26.8082L70.6219 28.4887C71.1792 28.8483 71.8229 29 72.5 29V27ZM71.7188 26.8164C71.5519 26.7052 71.2751 26.4172 70.9141 25.8156L69.1991 26.8446C69.6116 27.532 70.0731 28.123 70.6094 28.4805L71.7188 26.8164ZM70.9159 25.8186C70.6545 25.3793 70.3341 24.732 69.9544 23.8576L68.1198 24.6542C68.5136 25.561 68.8729 26.2965 69.1973 26.8416L70.9159 25.8186ZM69.9587 23.8678C69.5901 22.9923 69.2146 22.0392 68.8322 21.0078L66.9569 21.7031C67.3479 22.7577 67.7341 23.7381 68.1155 24.6439L69.9587 23.8678ZM68.8367 21.0205C68.466 19.9777 68.1306 18.9713 67.8303 18.0012L65.9197 18.5926C66.2288 19.5912 66.5731 20.6239 66.9523 21.6905L68.8367 21.0205ZM67.8303 18.0012C67.531 17.0343 67.3181 16.2354 67.1863 15.5982L65.2278 16.0034C65.3772 16.7255 65.6096 17.5907 65.9197 18.5926L67.8303 18.0012ZM67.1853 15.5933C67.0241 14.8337 66.8864 14.1048 66.772 13.4066L64.7983 13.7301C64.9182 14.4616 65.0618 15.221 65.2288 16.0083L67.1853 15.5933ZM66.7748 13.4247C66.6708 12.7083 66.6111 12.1733 66.5902 11.8062L64.5934 11.9203C64.6193 12.3736 64.6886 12.9753 64.7955 13.712L66.7748 13.4247ZM65.5918 10.8633H65.4512V12.8633H65.5918V10.8633ZM64.4528 11.8062C64.4327 12.1576 64.3645 12.6806 64.238 13.3937L66.2073 13.7431C66.3386 13.003 66.4227 12.3893 66.4495 11.9203L64.4528 11.8062ZM64.2358 13.4066C64.1222 14.0996 63.9798 14.8237 63.8081 15.5792L65.7583 16.0224C65.9382 15.231 66.0887 14.4668 66.2095 13.7301L64.2358 13.4066ZM63.8081 15.5792C63.6381 16.3272 63.4095 17.1911 63.1207 18.1729L65.0394 18.7373C65.3366 17.7269 65.5768 16.8213 65.7583 16.0224L63.8081 15.5792ZM63.1207 18.1729C62.8325 19.1527 62.5154 20.1389 62.1691 21.1316L64.0575 21.7903C64.4143 20.7673 64.7417 19.7496 65.0394 18.7373L63.1207 18.1729ZM62.1691 21.1316C61.8226 22.1248 61.4774 23.0393 61.1337 23.8758L62.9835 24.636C63.3429 23.7615 63.7008 22.8127 64.0575 21.7903L62.1691 21.1316ZM61.1337 23.8758C60.7919 24.7073 60.4861 25.3349 60.2185 25.7775L61.93 26.8124C62.2717 26.2471 62.6221 25.5154 62.9835 24.636L61.1337 23.8758ZM60.2136 25.7856C59.9239 26.2751 59.64 26.5776 59.3837 26.7534L60.5147 28.4029C61.0787 28.0161 61.5448 27.4632 61.9348 26.8043L60.2136 25.7856ZM59.3725 26.7612C59.2048 26.8796 58.8792 27 58.2793 27V29C59.109 29 59.8968 28.8392 60.5259 28.3951L59.3725 26.7612ZM58.2793 27H56.293V29H58.2793V27ZM56.293 27C55.7634 27 55.536 26.9001 55.4622 26.8482L54.3112 28.4838C54.8703 28.8772 55.5804 29 56.293 29V27ZM55.4622 26.8482C55.345 26.7658 55.1072 26.5063 54.7869 25.8988L53.0178 26.8317C53.3772 27.5133 53.7956 28.121 54.3112 28.4838L55.4622 26.8482ZM81.7832 5.48243V5.55274H83.7832V5.48243H81.7832ZM83.7832 5.55274V5.53517H81.7832V5.55274H83.7832ZM83.7832 5.53517C83.7832 5.53512 83.7832 5.53507 83.7832 5.53503C83.7832 5.53498 83.7832 5.53494 83.7832 5.53489C83.7832 5.53484 83.7832 5.5348 83.7832 5.53475C83.7832 5.53471 83.7832 5.53466 83.7832 5.53462C83.7832 5.53457 83.7832 5.53453 83.7832 5.53448C83.7832 5.53443 83.7832 5.53439 83.7832 5.53434C83.7832 5.5343 83.7832 5.53425 83.7832 5.53421C83.7832 5.53416 83.7832 5.53412 83.7832 5.53407C83.7832 5.53403 83.7832 5.53398 83.7832 5.53393C83.7832 5.53389 83.7832 5.53384 83.7832 5.5338C83.7832 5.53375 83.7832 5.53371 83.7832 5.53366C83.7832 5.53362 83.7832 5.53357 83.7832 5.53353C83.7832 5.53348 83.7832 5.53344 83.7832 5.53339C83.7832 5.53335 83.7832 5.5333 83.7832 5.53326C83.7832 5.53321 83.7832 5.53317 83.7832 5.53312C83.7832 5.53308 83.7832 5.53303 83.7832 5.53298C83.7832 5.53294 83.7832 5.53289 83.7832 5.53285C83.7832 5.5328 83.7832 5.53276 83.7832 5.53271C83.7832 5.53267 83.7832 5.53262 83.7832 5.53258C83.7832 5.53254 83.7832 5.53249 83.7832 5.53245C83.7832 5.5324 83.7832 5.53236 83.7832 5.53231C83.7832 5.53227 83.7832 5.53222 83.7832 5.53218C83.7832 5.53213 83.7832 5.53209 83.7832 5.53204C83.7832 5.532 83.7832 5.53195 83.7832 5.53191C83.7832 5.53186 83.7832 5.53182 83.7832 5.53177C83.7832 5.53173 83.7832 5.53168 83.7832 5.53164C83.7832 5.5316 83.7832 5.53155 83.7832 5.53151C83.7832 5.53146 83.7832 5.53142 83.7832 5.53137C83.7832 5.53133 83.7832 5.53128 83.7832 5.53124C83.7832 5.53119 83.7832 5.53115 83.7832 5.53111C83.7832 5.53106 83.7832 5.53102 83.7832 5.53097C83.7832 5.53093 83.7832 5.53088 83.7832 5.53084C83.7832 5.53079 83.7832 5.53075 83.7832 5.53071C83.7832 5.53066 83.7832 5.53062 83.7832 5.53057C83.7832 5.53053 83.7832 5.53048 83.7832 5.53044C83.7832 5.5304 83.7832 5.53035 83.7832 5.53031C83.7832 5.53026 83.7832 5.53022 83.7832 5.53018C83.7832 5.53013 83.7832 5.53009 83.7832 5.53004C83.7832 5.53 83.7832 5.52996 83.7832 5.52991C83.7832 5.52987 83.7832 5.52982 83.7832 5.52978C83.7832 5.52974 83.7832 5.52969 83.7832 5.52965C83.7832 5.5296 83.7832 5.52956 83.7832 5.52952C83.7832 5.52947 83.7832 5.52943 83.7832 5.52938C83.7832 5.52934 83.7832 5.5293 83.7832 5.52925C83.7832 5.52921 83.7832 5.52916 83.7832 5.52912C83.7832 5.52908 83.7832 5.52903 83.7832 5.52899C83.7832 5.52895 83.7832 5.5289 83.7832 5.52886C83.7832 5.52882 83.7832 5.52877 83.7832 5.52873C83.7832 5.52868 83.7832 5.52864 83.7832 5.5286C83.7832 5.52855 83.7832 5.52851 83.7832 5.52847C83.7832 5.52842 83.7832 5.52838 83.7832 5.52834C83.7832 5.52829 83.7832 5.52825 83.7832 5.52821C83.7832 5.52816 83.7832 5.52812 83.7832 5.52807C83.7832 5.52803 83.7832 5.52799 83.7832 5.52794C83.7832 5.5279 83.7832 5.52786 83.7832 5.52781C83.7832 5.52777 83.7832 5.52773 83.7832 5.52768C83.7832 5.52764 83.7832 5.5276 83.7832 5.52756C83.7832 5.52751 83.7832 5.52747 83.7832 5.52743C83.7832 5.52738 83.7832 5.52734 83.7832 5.5273C83.7832 5.52725 83.7832 5.52721 83.7832 5.52717C83.7832 5.52712 83.7832 5.52708 83.7832 5.52704C83.7832 5.52699 83.7832 5.52695 83.7832 5.52691C83.7832 5.52687 83.7832 5.52682 83.7832 5.52678C83.7832 5.52674 83.7832 5.52669 83.7832 5.52665C83.7832 5.52661 83.7832 5.52656 83.7832 5.52652C83.7832 5.52648 83.7832 5.52644 83.7832 5.52639C83.7832 5.52635 83.7832 5.52631 83.7832 5.52627C83.7832 5.52622 83.7832 5.52618 83.7832 5.52614C83.7832 5.52609 83.7832 5.52605 83.7832 5.52601C83.7832 5.52597 83.7832 5.52592 83.7832 5.52588C83.7832 5.52584 83.7832 5.5258 83.7832 5.52575C83.7832 5.52571 83.7832 5.52567 83.7832 5.52562C83.7832 5.52558 83.7832 5.52554 83.7832 5.5255C83.7832 5.52545 83.7832 5.52541 83.7832 5.52537C83.7832 5.52533 83.7832 5.52528 83.7832 5.52524C83.7832 5.5252 83.7832 5.52516 83.7832 5.52512C83.7832 5.52507 83.7832 5.52503 83.7832 5.52499C83.7832 5.52495 83.7832 5.5249 83.7832 5.52486C83.7832 5.52482 83.7832 5.52478 83.7832 5.52473C83.7832 5.52469 83.7832 5.52465 83.7832 5.52461C83.7832 5.52457 83.7832 5.52452 83.7832 5.52448C83.7832 5.52444 83.7832 5.5244 83.7832 5.52435C83.7832 5.52431 83.7832 5.52427 83.7832 5.52423C83.7832 5.52419 83.7832 5.52414 83.7832 5.5241C83.7832 5.52406 83.7832 5.52402 83.7832 5.52398C83.7832 5.52393 83.7832 5.52389 83.7832 5.52385C83.7832 5.52381 83.7832 5.52377 83.7832 5.52372C83.7832 5.52368 83.7832 5.52364 83.7832 5.5236C83.7832 5.52356 83.7832 5.52352 83.7832 5.52347C83.7832 5.52343 83.7832 5.52339 83.7832 5.52335C83.7832 5.52331 83.7832 5.52327 83.7832 5.52322C83.7832 5.52318 83.7832 5.52314 83.7832 5.5231C83.7832 5.52306 83.7832 5.52302 83.7832 5.52297C83.7832 5.52293 83.7832 5.52289 83.7832 5.52285C83.7832 5.52281 83.7832 5.52277 83.7832 5.52272C83.7832 5.52268 83.7832 5.52264 83.7832 5.5226C83.7832 5.52256 83.7832 5.52252 83.7832 5.52248C83.7832 5.52243 83.7832 5.52239 83.7832 5.52235C83.7832 5.52231 83.7832 5.52227 83.7832 5.52223C83.7832 5.52219 83.7832 5.52214 83.7832 5.5221C83.7832 5.52206 83.7832 5.52202 83.7832 5.52198C83.7832 5.52194 83.7832 5.5219 83.7832 5.52186C83.7832 5.52181 83.7832 5.52177 83.7832 5.52173C83.7832 5.52169 83.7832 5.52165 83.7832 5.52161C83.7832 5.52157 83.7832 5.52153 83.7832 5.52148C83.7832 5.52144 83.7832 5.5214 83.7832 5.52136C83.7832 5.52132 83.7832 5.52128 83.7832 5.52124C83.7832 5.5212 83.7832 5.52116 83.7832 5.52112C83.7832 5.52107 83.7832 5.52103 83.7832 5.52099C83.7832 5.52095 83.7832 5.52091 83.7832 5.52087C83.7832 5.52083 83.7832 5.52079 83.7832 5.52075C83.7832 5.52071 83.7832 5.52067 83.7832 5.52063C83.7832 5.52058 83.7832 5.52054 83.7832 5.5205C83.7832 5.52046 83.7832 5.52042 83.7832 5.52038C83.7832 5.52034 83.7832 5.5203 83.7832 5.52026C83.7832 5.52022 83.7832 5.52018 83.7832 5.52014C83.7832 5.5201 83.7832 5.52006 83.7832 5.52002C83.7832 5.51997 83.7832 5.51993 83.7832 5.51989C83.7832 5.51985 83.7832 5.51981 83.7832 5.51977C83.7832 5.51973 83.7832 5.51969 83.7832 5.51965C83.7832 5.51961 83.7832 5.51957 83.7832 5.51953C83.7832 5.51949 83.7832 5.51945 83.7832 5.51941C83.7832 5.51937 83.7832 5.51933 83.7832 5.51929C83.7832 5.51925 83.7832 5.51921 83.7832 5.51917C83.7832 5.51913 83.7832 5.51909 83.7832 5.51905C83.7832 5.51901 83.7832 5.51897 83.7832 5.51893C83.7832 5.51889 83.7832 5.51885 83.7832 5.51881C83.7832 5.51877 83.7832 5.51873 83.7832 5.51869C83.7832 5.51865 83.7832 5.51861 83.7832 5.51857C83.7832 5.51853 83.7832 5.51849 83.7832 5.51845C83.7832 5.51841 83.7832 5.51837 83.7832 5.51833C83.7832 5.51829 83.7832 5.51825 83.7832 5.51821C83.7832 5.51817 83.7832 5.51813 83.7832 5.51809C83.7832 5.51805 83.7832 5.51801 83.7832 5.51797C83.7832 5.51793 83.7832 5.51789 83.7832 5.51785C83.7832 5.51781 83.7832 5.51777 83.7832 5.51773C83.7832 5.51769 83.7832 5.51765 83.7832 5.51761C83.7832 5.51757 83.7832 5.51753 83.7832 5.51749C83.7832 5.51745 83.7832 5.51741 83.7832 5.51737C83.7832 5.51733 83.7832 5.51729 83.7832 5.51725C83.7832 5.51721 83.7832 5.51717 83.7832 5.51713C83.7832 5.5171 83.7832 5.51706 83.7832 5.51702C83.7832 5.51698 83.7832 5.51694 83.7832 5.5169C83.7832 5.51686 83.7832 5.51682 83.7832 5.51678C83.7832 5.51674 83.7832 5.5167 83.7832 5.51666C83.7832 5.51662 83.7832 5.51658 83.7832 5.51654C83.7832 5.51651 83.7832 5.51647 83.7832 5.51643C83.7832 5.51639 83.7832 5.51635 83.7832 5.51631C83.7832 5.51627 83.7832 5.51623 83.7832 5.51619C83.7832 5.51615 83.7832 5.51611 83.7832 5.51607C83.7832 5.51604 83.7832 5.516 83.7832 5.51596C83.7832 5.51592 83.7832 5.51588 83.7832 5.51584C83.7832 5.5158 83.7832 5.51576 83.7832 5.51572C83.7832 5.51568 83.7832 5.51565 83.7832 5.51561C83.7832 5.51557 83.7832 5.51553 83.7832 5.51549C83.7832 5.51545 83.7832 5.51541 83.7832 5.51537C83.7832 5.51533 83.7832 5.5153 83.7832 5.51526C83.7832 5.51522 83.7832 5.51518 83.7832 5.51514C83.7832 5.5151 83.7832 5.51506 83.7832 5.51502C83.7832 5.51499 83.7832 5.51495 83.7832 5.51491C83.7832 5.51487 83.7832 5.51483 83.7832 5.51479C83.7832 5.51475 83.7832 5.51472 83.7832 5.51468C83.7832 5.51464 83.7832 5.5146 83.7832 5.51456C83.7832 5.51452 83.7832 5.51449 83.7832 5.51445C83.7832 5.51441 83.7832 5.51437 83.7832 5.51433C83.7832 5.51429 83.7832 5.51425 83.7832 5.51422C83.7832 5.51418 83.7832 5.51414 83.7832 5.5141C83.7832 5.51406 83.7832 5.51402 83.7832 5.51399C83.7832 5.51395 83.7832 5.51391 83.7832 5.51387C83.7832 5.51383 83.7832 5.5138 83.7832 5.51376C83.7832 5.51372 83.7832 5.51368 83.7832 5.51364C83.7832 5.5136 83.7832 5.51357 83.7832 5.51353C83.7832 5.51349 83.7832 5.51345 83.7832 5.51341C83.7832 5.51338 83.7832 5.51334 83.7832 5.5133C83.7832 5.51326 83.7832 5.51322 83.7832 5.51319C83.7832 5.51315 83.7832 5.51311 83.7832 5.51307C83.7832 5.51303 83.7832 5.513 83.7832 5.51296C83.7832 5.51292 83.7832 5.51288 83.7832 5.51285C83.7832 5.51281 83.7832 5.51277 83.7832 5.51273C83.7832 5.51269 83.7832 5.51266 83.7832 5.51262C83.7832 5.51258 83.7832 5.51254 83.7832 5.51251C83.7832 5.51247 83.7832 5.51243 83.7832 5.51239C83.7832 5.51235 83.7832 5.51232 83.7832 5.51228C83.7832 5.51224 83.7832 5.5122 83.7832 5.51217C83.7832 5.51213 83.7832 5.51209 83.7832 5.51205C83.7832 5.51202 83.7832 5.51198 83.7832 5.51194C83.7832 5.5119 83.7832 5.51187 83.7832 5.51183C83.7832 5.51179 83.7832 5.51175 83.7832 5.51172C83.7832 5.51168 83.7832 5.51164 83.7832 5.51161C83.7832 5.51157 83.7832 5.51153 83.7832 5.51149C83.7832 5.51146 83.7832 5.51142 83.7832 5.51138C83.7832 5.51134 83.7832 5.51131 83.7832 5.51127C83.7832 5.51123 83.7832 5.5112 83.7832 5.51116C83.7832 5.51112 83.7832 5.51108 83.7832 5.51105C83.7832 5.51101 83.7832 5.51097 83.7832 5.51094C83.7832 5.5109 83.7832 5.51086 83.7832 5.51082C83.7832 5.51079 83.7832 5.51075 83.7832 5.51071C83.7832 5.51068 83.7832 5.51064 83.7832 5.5106C83.7832 5.51057 83.7832 5.51053 83.7832 5.51049C83.7832 5.51046 83.7832 5.51042 83.7832 5.51038C83.7832 5.51034 83.7832 5.51031 83.7832 5.51027C83.7832 5.51023 83.7832 5.5102 83.7832 5.51016C83.7832 5.51012 83.7832 5.51009 83.7832 5.51005C83.7832 5.51001 83.7832 5.50998 83.7832 5.50994C83.7832 5.5099 83.7832 5.50987 83.7832 5.50983C83.7832 5.50979 83.7832 5.50976 83.7832 5.50972C83.7832 5.50968 83.7832 5.50965 83.7832 5.50961C83.7832 5.50957 83.7832 5.50954 83.7832 5.5095C83.7832 5.50947 83.7832 5.50943 83.7832 5.50939C83.7832 5.50936 83.7832 5.50932 83.7832 5.50928C83.7832 5.50925 83.7832 5.50921 83.7832 5.50917C83.7832 5.50914 83.7832 5.5091 83.7832 5.50907C83.7832 5.50903 83.7832 5.50899 83.7832 5.50896C83.7832 5.50892 83.7832 5.50888 83.7832 5.50885C83.7832 5.50881 83.7832 5.50878 83.7832 5.50874C83.7832 5.5087 83.7832 5.50867 83.7832 5.50863C83.7832 5.50859 83.7832 5.50856 83.7832 5.50852C83.7832 5.50849 83.7832 5.50845 83.7832 5.50841C83.7832 5.50838 83.7832 5.50834 83.7832 5.50831C83.7832 5.50827 83.7832 5.50823 83.7832 5.5082C83.7832 5.50816 83.7832 5.50813 83.7832 5.50809C83.7832 5.50805 83.7832 5.50802 83.7832 5.50798C83.7832 5.50795 83.7832 5.50791 83.7832 5.50788C83.7832 5.50784 83.7832 5.5078 83.7832 5.50777C83.7832 5.50773 83.7832 5.5077 83.7832 5.50766C83.7832 5.50762 83.7832 5.50759 83.7832 5.50755C83.7832 5.50752 83.7832 5.50748 83.7832 5.50745C83.7832 5.50741 83.7832 5.50738 83.7832 5.50734C83.7832 5.5073 83.7832 5.50727 83.7832 5.50723C83.7832 5.5072 83.7832 5.50716 83.7832 5.50713C83.7832 5.50709 83.7832 5.50706 83.7832 5.50702C83.7832 5.50698 83.7832 5.50695 83.7832 5.50691C83.7832 5.50688 83.7832 5.50684 83.7832 5.50681C83.7832 5.50677 83.7832 5.50674 83.7832 5.5067C83.7832 5.50667 83.7832 5.50663 83.7832 5.5066C83.7832 5.50656 83.7832 5.50653 83.7832 5.50649C83.7832 5.50645 83.7832 5.50642 83.7832 5.50638C83.7832 5.50635 83.7832 5.50631 83.7832 5.50628C83.7832 5.50624 83.7832 5.50621 83.7832 5.50617C83.7832 5.50614 83.7832 5.5061 83.7832 5.50607C83.7832 5.50603 83.7832 5.506 83.7832 5.50596C83.7832 5.50593 83.7832 5.50589 83.7832 5.50586C83.7832 5.50582 83.7832 5.50579 83.7832 5.50575C83.7832 5.50572 83.7832 5.50568 83.7832 5.50565C83.7832 5.50561 83.7832 5.50558 83.7832 5.50554C83.7832 5.50551 83.7832 5.50547 83.7832 5.50544C83.7832 5.50541 83.7832 5.50537 83.7832 5.50534C83.7832 5.5053 83.7832 5.50527 83.7832 5.50523C83.7832 5.5052 83.7832 5.50516 83.7832 5.50513C83.7832 5.50509 83.7832 5.50506 83.7832 5.50502C83.7832 5.50499 83.7832 5.50495 83.7832 5.50492C83.7832 5.50489 83.7832 5.50485 83.7832 5.50482C83.7832 5.50478 83.7832 5.50475 83.7832 5.50471C83.7832 5.50468 83.7832 5.50464 83.7832 5.50461C83.7832 5.50458 83.7832 5.50454 83.7832 5.50451C83.7832 5.50447 83.7832 5.50444 83.7832 5.5044C83.7832 5.50437 83.7832 5.50433 83.7832 5.5043C83.7832 5.50427 83.7832 5.50423 83.7832 5.5042C83.7832 5.50416 83.7832 5.50413 83.7832 5.50409C83.7832 5.50406 83.7832 5.50403 83.7832 5.50399C83.7832 5.50396 83.7832 5.50392 83.7832 5.50389C83.7832 5.50386 83.7832 5.50382 83.7832 5.50379C83.7832 5.50375 83.7832 5.50372 83.7832 5.50369C83.7832 5.50365 83.7832 5.50362 83.7832 5.50358C83.7832 5.50355 83.7832 5.50352 83.7832 5.50348C83.7832 5.50345 83.7832 5.50341 83.7832 5.50338C83.7832 5.50335 83.7832 5.50331 83.7832 5.50328C83.7832 5.50324 83.7832 5.50321 83.7832 5.50318C83.7832 5.50314 83.7832 5.50311 83.7832 5.50308C83.7832 5.50304 83.7832 5.50301 83.7832 5.50297C83.7832 5.50294 83.7832 5.50291 83.7832 5.50287C83.7832 5.50284 83.7832 5.50281 83.7832 5.50277C83.7832 5.50274 83.7832 5.50271 83.7832 5.50267C83.7832 5.50264 83.7832 5.5026 83.7832 5.50257C83.7832 5.50254 83.7832 5.5025 83.7832 5.50247C83.7832 5.50244 83.7832 5.5024 83.7832 5.50237C83.7832 5.50234 83.7832 5.5023 83.7832 5.50227C83.7832 5.50224 83.7832 5.5022 83.7832 5.50217C83.7832 5.50214 83.7832 5.5021 83.7832 5.50207C83.7832 5.50204 83.7832 5.502 83.7832 5.50197C83.7832 5.50194 83.7832 5.5019 83.7832 5.50187C83.7832 5.50184 83.7832 5.5018 83.7832 5.50177C83.7832 5.50174 83.7832 5.5017 83.7832 5.50167C83.7832 5.50164 83.7832 5.50161 83.7832 5.50157C83.7832 5.50154 83.7832 5.50151 83.7832 5.50147C83.7832 5.50144 83.7832 5.50141 83.7832 5.50137C83.7832 5.50134 83.7832 5.50131 83.7832 5.50127C83.7832 5.50124 83.7832 5.50121 83.7832 5.50118C83.7832 5.50114 83.7832 5.50111 83.7832 5.50108C83.7832 5.50104 83.7832 5.50101 83.7832 5.50098C83.7832 5.50095 83.7832 5.50091 83.7832 5.50088C83.7832 5.50085 83.7832 5.50082 83.7832 5.50078C83.7832 5.50075 83.7832 5.50072 83.7832 5.50068C83.7832 5.50065 83.7832 5.50062 83.7832 5.50059C83.7832 5.50055 83.7832 5.50052 83.7832 5.50049C83.7832 5.50046 83.7832 5.50042 83.7832 5.50039C83.7832 5.50036 83.7832 5.50033 83.7832 5.50029C83.7832 5.50026 83.7832 5.50023 83.7832 5.5002C83.7832 5.50016 83.7832 5.50013 83.7832 5.5001C83.7832 5.50007 83.7832 5.50003 83.7832 5.5C83.7832 5.49997 83.7832 5.49994 83.7832 5.4999C83.7832 5.49987 83.7832 5.49984 83.7832 5.49981C83.7832 5.49978 83.7832 5.49974 83.7832 5.49971C83.7832 5.49968 83.7832 5.49965 83.7832 5.49961C83.7832 5.49958 83.7832 5.49955 83.7832 5.49952C83.7832 5.49949 83.7832 5.49945 83.7832 5.49942C83.7832 5.49939 83.7832 5.49936 83.7832 5.49932C83.7832 5.49929 83.7832 5.49926 83.7832 5.49923C83.7832 5.4992 83.7832 5.49916 83.7832 5.49913C83.7832 5.4991 83.7832 5.49907 83.7832 5.49904C83.7832 5.49901 83.7832 5.49897 83.7832 5.49894C83.7832 5.49891 83.7832 5.49888 83.7832 5.49885C83.7832 5.49881 83.7832 5.49878 83.7832 5.49875C83.7832 5.49872 83.7832 5.49869 83.7832 5.49866C83.7832 5.49862 83.7832 5.49859 83.7832 5.49856C83.7832 5.49853 83.7832 5.4985 83.7832 5.49846C83.7832 5.49843 83.7832 5.4984 83.7832 5.49837C83.7832 5.49834 83.7832 5.49831 83.7832 5.49828C83.7832 5.49824 83.7832 5.49821 83.7832 5.49818C83.7832 5.49815 83.7832 5.49812 83.7832 5.49809C83.7832 5.49805 83.7832 5.49802 83.7832 5.49799C83.7832 5.49796 83.7832 5.49793 83.7832 5.4979C83.7832 5.49787 83.7832 5.49783 83.7832 5.4978C83.7832 5.49777 83.7832 5.49774 83.7832 5.49771C83.7832 5.49768 83.7832 5.49765 83.7832 5.49762C83.7832 5.49758 83.7832 5.49755 83.7832 5.49752C83.7832 5.49749 83.7832 5.49746 83.7832 5.49743C83.7832 5.4974 83.7832 5.49737 83.7832 5.49734C83.7832 5.4973 83.7832 5.49727 83.7832 5.49724C83.7832 5.49721 83.7832 5.49718 83.7832 5.49715C83.7832 5.49712 83.7832 5.49709 83.7832 5.49706C83.7832 5.49702 83.7832 5.49699 83.7832 5.49696C83.7832 5.49693 83.7832 5.4969 83.7832 5.49687C83.7832 5.49684 83.7832 5.49681 83.7832 5.49678C83.7832 5.49675 83.7832 5.49672 83.7832 5.49669C83.7832 5.49665 83.7832 5.49662 83.7832 5.49659C83.7832 5.49656 83.7832 5.49653 83.7832 5.4965C83.7832 5.49647 83.7832 5.49644 83.7832 5.49641C83.7832 5.49638 83.7832 5.49635 83.7832 5.49632C83.7832 5.49629 83.7832 5.49626 83.7832 5.49622C83.7832 5.49619 83.7832 5.49616 83.7832 5.49613C83.7832 5.4961 83.7832 5.49607 83.7832 5.49604C83.7832 5.49601 83.7832 5.49598 83.7832 5.49595C83.7832 5.49592 83.7832 5.49589 83.7832 5.49586C83.7832 5.49583 83.7832 5.4958 83.7832 5.49577C83.7832 5.49574 83.7832 5.49571 83.7832 5.49568C83.7832 5.49565 83.7832 5.49562 83.7832 5.49559C83.7832 5.49556 83.7832 5.49553 83.7832 5.4955C83.7832 5.49546 83.7832 5.49543 83.7832 5.4954C83.7832 5.49537 83.7832 5.49534 83.7832 5.49531C83.7832 5.49528 83.7832 5.49525 83.7832 5.49522C83.7832 5.49519 83.7832 5.49516 83.7832 5.49513C83.7832 5.4951 83.7832 5.49507 83.7832 5.49504C83.7832 5.49501 83.7832 5.49498 83.7832 5.49495C83.7832 5.49492 83.7832 5.49489 83.7832 5.49486C83.7832 5.49483 83.7832 5.4948 83.7832 5.49477C83.7832 5.49474 83.7832 5.49471 83.7832 5.49468C83.7832 5.49465 83.7832 5.49463 83.7832 5.4946C83.7832 5.49457 83.7832 5.49454 83.7832 5.49451C83.7832 5.49448 83.7832 5.49445 83.7832 5.49442C83.7832 5.49439 83.7832 5.49436 83.7832 5.49433C83.7832 5.4943 83.7832 5.49427 83.7832 5.49424C83.7832 5.49421 83.7832 5.49418 83.7832 5.49415C83.7832 5.49412 83.7832 5.49409 83.7832 5.49406C83.7832 5.49403 83.7832 5.494 83.7832 5.49397C83.7832 5.49394 83.7832 5.49391 83.7832 5.49389C83.7832 5.49386 83.7832 5.49383 83.7832 5.4938C83.7832 5.49377 83.7832 5.49374 83.7832 5.49371C83.7832 5.49368 83.7832 5.49365 83.7832 5.49362C83.7832 5.49359 83.7832 5.49356 83.7832 5.49353C83.7832 5.4935 83.7832 5.49347 83.7832 5.49345C83.7832 5.49342 83.7832 5.49339 83.7832 5.49336C83.7832 5.49333 83.7832 5.4933 83.7832 5.49327C83.7832 5.49324 83.7832 5.49321 83.7832 5.49318C83.7832 5.49315 83.7832 5.49313 83.7832 5.4931C83.7832 5.49307 83.7832 5.49304 83.7832 5.49301C83.7832 5.49298 83.7832 5.49295 83.7832 5.49292C83.7832 5.49289 83.7832 5.49286 83.7832 5.49284C83.7832 5.49281 83.7832 5.49278 83.7832 5.49275C83.7832 5.49272 83.7832 5.49269 83.7832 5.49266C83.7832 5.49263 83.7832 5.49261 83.7832 5.49258C83.7832 5.49255 83.7832 5.49252 83.7832 5.49249C83.7832 5.49246 83.7832 5.49243 83.7832 5.4924C83.7832 5.49238 83.7832 5.49235 83.7832 5.49232C83.7832 5.49229 83.7832 5.49226 83.7832 5.49223C83.7832 5.4922 83.7832 5.49218 83.7832 5.49215C83.7832 5.49212 83.7832 5.49209 83.7832 5.49206C83.7832 5.49203 83.7832 5.492 83.7832 5.49198C83.7832 5.49195 83.7832 5.49192 83.7832 5.49189C83.7832 5.49186 83.7832 5.49183 83.7832 5.49181C83.7832 5.49178 83.7832 5.49175 83.7832 5.49172C83.7832 5.49169 83.7832 5.49166 83.7832 5.49164C83.7832 5.49161 83.7832 5.49158 83.7832 5.49155C83.7832 5.49152 83.7832 5.49149 83.7832 5.49147C83.7832 5.49144 83.7832 5.49141 83.7832 5.49138C83.7832 5.49135 83.7832 5.49133 83.7832 5.4913C83.7832 5.49127 83.7832 5.49124 83.7832 5.49121C83.7832 5.49119 83.7832 5.49116 83.7832 5.49113C83.7832 5.4911 83.7832 5.49107 83.7832 5.49105C83.7832 5.49102 83.7832 5.49099 83.7832 5.49096C83.7832 5.49093 83.7832 5.49091 83.7832 5.49088C83.7832 5.49085 83.7832 5.49082 83.7832 5.4908C83.7832 5.49077 83.7832 5.49074 83.7832 5.49071C83.7832 5.49068 83.7832 5.49066 83.7832 5.49063C83.7832 5.4906 83.7832 5.49057 83.7832 5.49055C83.7832 5.49052 83.7832 5.49049 83.7832 5.49046C83.7832 5.49043 83.7832 5.49041 83.7832 5.49038C83.7832 5.49035 83.7832 5.49032 83.7832 5.4903C83.7832 5.49027 83.7832 5.49024 83.7832 5.49021C83.7832 5.49019 83.7832 5.49016 83.7832 5.49013C83.7832 5.4901 83.7832 5.49008 83.7832 5.49005C83.7832 5.49002 83.7832 5.49 83.7832 5.48997C83.7832 5.48994 83.7832 5.48991 83.7832 5.48989C83.7832 5.48986 83.7832 5.48983 83.7832 5.4898C83.7832 5.48978 83.7832 5.48975 83.7832 5.48972C83.7832 5.48969 83.7832 5.48967 83.7832 5.48964C83.7832 5.48961 83.7832 5.48959 83.7832 5.48956C83.7832 5.48953 83.7832 5.4895 83.7832 5.48948C83.7832 5.48945 83.7832 5.48942 83.7832 5.4894C83.7832 5.48937 83.7832 5.48934 83.7832 5.48932C83.7832 5.48929 83.7832 5.48926 83.7832 5.48923C83.7832 5.48921 83.7832 5.48918 83.7832 5.48915C83.7832 5.48913 83.7832 5.4891 83.7832 5.48907C83.7832 5.48905 83.7832 5.48902 83.7832 5.48899C83.7832 5.48897 83.7832 5.48894 83.7832 5.48891C83.7832 5.48889 83.7832 5.48886 83.7832 5.48883C83.7832 5.48881 83.7832 5.48878 83.7832 5.48875C83.7832 5.48872 83.7832 5.4887 83.7832 5.48867C83.7832 5.48865 83.7832 5.48862 83.7832 5.48859C83.7832 5.48857 83.7832 5.48854 83.7832 5.48851C83.7832 5.48849 83.7832 5.48846 83.7832 5.48843C83.7832 5.48841 83.7832 5.48838 83.7832 5.48835C83.7832 5.48833 83.7832 5.4883 83.7832 5.48827C83.7832 5.48825 83.7832 5.48822 83.7832 5.48819C83.7832 5.48817 83.7832 5.48814 83.7832 5.48812C83.7832 5.48809 83.7832 5.48806 83.7832 5.48804C83.7832 5.48801 83.7832 5.48798 83.7832 5.48796C83.7832 5.48793 83.7832 5.48791 83.7832 5.48788C83.7832 5.48785 83.7832 5.48783 83.7832 5.4878C83.7832 5.48777 83.7832 5.48775 83.7832 5.48772C83.7832 5.4877 83.7832 5.48767 83.7832 5.48764C83.7832 5.48762 83.7832 5.48759 83.7832 5.48757C83.7832 5.48754 83.7832 5.48751 83.7832 5.48749C83.7832 5.48746 83.7832 5.48744 83.7832 5.48741C83.7832 5.48738 83.7832 5.48736 83.7832 5.48733C83.7832 5.48731 83.7832 5.48728 83.7832 5.48725C83.7832 5.48723 83.7832 5.4872 83.7832 5.48718C83.7832 5.48715 83.7832 5.48713 83.7832 5.4871C83.7832 5.48707 83.7832 5.48705 83.7832 5.48702C83.7832 5.487 83.7832 5.48697 83.7832 5.48695C83.7832 5.48692 83.7832 5.48689 83.7832 5.48687C83.7832 5.48684 83.7832 5.48682 83.7832 5.48679C83.7832 5.48677 83.7832 5.48674 83.7832 5.48672C83.7832 5.48669 83.7832 5.48666 83.7832 5.48664C83.7832 5.48661 83.7832 5.48659 83.7832 5.48656C83.7832 5.48654 83.7832 5.48651 83.7832 5.48649C83.7832 5.48646 83.7832 5.48644 83.7832 5.48641C83.7832 5.48638 83.7832 5.48636 83.7832 5.48633C83.7832 5.48631 83.7832 5.48628 83.7832 5.48626C83.7832 5.48623 83.7832 5.48621 83.7832 5.48618C83.7832 5.48616 83.7832 5.48613 83.7832 5.48611C83.7832 5.48608 83.7832 5.48606 83.7832 5.48603C83.7832 5.48601 83.7832 5.48598 83.7832 5.48596C83.7832 5.48593 83.7832 5.48591 83.7832 5.48588C83.7832 5.48586 83.7832 5.48583 83.7832 5.48581C83.7832 5.48578 83.7832 5.48576 83.7832 5.48573C83.7832 5.48571 83.7832 5.48568 83.7832 5.48566C83.7832 5.48563 83.7832 5.48561 83.7832 5.48558C83.7832 5.48556 83.7832 5.48553 83.7832 5.48551C83.7832 5.48548 83.7832 5.48546 83.7832 5.48543C83.7832 5.48541 83.7832 5.48538 83.7832 5.48536C83.7832 5.48533 83.7832 5.48531 83.7832 5.48528C83.7832 5.48526 83.7832 5.48524 83.7832 5.48521C83.7832 5.48519 83.7832 5.48516 83.7832 5.48514C83.7832 5.48511 83.7832 5.48509 83.7832 5.48506C83.7832 5.48504 83.7832 5.48501 83.7832 5.48499C83.7832 5.48497 83.7832 5.48494 83.7832 5.48492C83.7832 5.48489 83.7832 5.48487 83.7832 5.48484C83.7832 5.48482 83.7832 5.48479 83.7832 5.48477C83.7832 5.48475 83.7832 5.48472 83.7832 5.4847C83.7832 5.48467 83.7832 5.48465 83.7832 5.48462C83.7832 5.4846 83.7832 5.48458 83.7832 5.48455C83.7832 5.48453 83.7832 5.4845 83.7832 5.48448C83.7832 5.48445 83.7832 5.48443 83.7832 5.48441C83.7832 5.48438 83.7832 5.48436 83.7832 5.48433C83.7832 5.48431 83.7832 5.48429 83.7832 5.48426C83.7832 5.48424 83.7832 5.48421 83.7832 5.48419C83.7832 5.48417 83.7832 5.48414 83.7832 5.48412C83.7832 5.48409 83.7832 5.48407 83.7832 5.48405C83.7832 5.48402 83.7832 5.484 83.7832 5.48397C83.7832 5.48395 83.7832 5.48393 83.7832 5.4839C83.7832 5.48388 83.7832 5.48385 83.7832 5.48383C83.7832 5.48381 83.7832 5.48378 83.7832 5.48376C83.7832 5.48374 83.7832 5.48371 83.7832 5.48369C83.7832 5.48366 83.7832 5.48364 83.7832 5.48362C83.7832 5.48359 83.7832 5.48357 83.7832 5.48355C83.7832 5.48352 83.7832 5.4835 83.7832 5.48348C83.7832 5.48345 83.7832 5.48343 83.7832 5.48341C83.7832 5.48338 83.7832 5.48336 83.7832 5.48333C83.7832 5.48331 83.7832 5.48329 83.7832 5.48326C83.7832 5.48324 83.7832 5.48322 83.7832 5.48319C83.7832 5.48317 83.7832 5.48315 83.7832 5.48312C83.7832 5.4831 83.7832 5.48308 83.7832 5.48305C83.7832 5.48303 83.7832 5.48301 83.7832 5.48298C83.7832 5.48296 83.7832 5.48294 83.7832 5.48291C83.7832 5.48289 83.7832 5.48287 83.7832 5.48285C83.7832 5.48282 83.7832 5.4828 83.7832 5.48278C83.7832 5.48275 83.7832 5.48273 83.7832 5.48271C83.7832 5.48268 83.7832 5.48266 83.7832 5.48264C83.7832 5.48261 83.7832 5.48259 83.7832 5.48257C83.7832 5.48255 83.7832 5.48252 83.7832 5.4825C83.7832 5.48248 83.7832 5.48245 83.7832 5.48243H81.7832C81.7832 5.48245 81.7832 5.48248 81.7832 5.4825C81.7832 5.48252 81.7832 5.48255 81.7832 5.48257C81.7832 5.48259 81.7832 5.48261 81.7832 5.48264C81.7832 5.48266 81.7832 5.48268 81.7832 5.48271C81.7832 5.48273 81.7832 5.48275 81.7832 5.48278C81.7832 5.4828 81.7832 5.48282 81.7832 5.48285C81.7832 5.48287 81.7832 5.48289 81.7832 5.48291C81.7832 5.48294 81.7832 5.48296 81.7832 5.48298C81.7832 5.48301 81.7832 5.48303 81.7832 5.48305C81.7832 5.48308 81.7832 5.4831 81.7832 5.48312C81.7832 5.48315 81.7832 5.48317 81.7832 5.48319C81.7832 5.48322 81.7832 5.48324 81.7832 5.48326C81.7832 5.48329 81.7832 5.48331 81.7832 5.48333C81.7832 5.48336 81.7832 5.48338 81.7832 5.48341C81.7832 5.48343 81.7832 5.48345 81.7832 5.48348C81.7832 5.4835 81.7832 5.48352 81.7832 5.48355C81.7832 5.48357 81.7832 5.48359 81.7832 5.48362C81.7832 5.48364 81.7832 5.48366 81.7832 5.48369C81.7832 5.48371 81.7832 5.48374 81.7832 5.48376C81.7832 5.48378 81.7832 5.48381 81.7832 5.48383C81.7832 5.48385 81.7832 5.48388 81.7832 5.4839C81.7832 5.48393 81.7832 5.48395 81.7832 5.48397C81.7832 5.484 81.7832 5.48402 81.7832 5.48405C81.7832 5.48407 81.7832 5.48409 81.7832 5.48412C81.7832 5.48414 81.7832 5.48417 81.7832 5.48419C81.7832 5.48421 81.7832 5.48424 81.7832 5.48426C81.7832 5.48429 81.7832 5.48431 81.7832 5.48433C81.7832 5.48436 81.7832 5.48438 81.7832 5.48441C81.7832 5.48443 81.7832 5.48445 81.7832 5.48448C81.7832 5.4845 81.7832 5.48453 81.7832 5.48455C81.7832 5.48458 81.7832 5.4846 81.7832 5.48462C81.7832 5.48465 81.7832 5.48467 81.7832 5.4847C81.7832 5.48472 81.7832 5.48475 81.7832 5.48477C81.7832 5.48479 81.7832 5.48482 81.7832 5.48484C81.7832 5.48487 81.7832 5.48489 81.7832 5.48492C81.7832 5.48494 81.7832 5.48497 81.7832 5.48499C81.7832 5.48501 81.7832 5.48504 81.7832 5.48506C81.7832 5.48509 81.7832 5.48511 81.7832 5.48514C81.7832 5.48516 81.7832 5.48519 81.7832 5.48521C81.7832 5.48524 81.7832 5.48526 81.7832 5.48528C81.7832 5.48531 81.7832 5.48533 81.7832 5.48536C81.7832 5.48538 81.7832 5.48541 81.7832 5.48543C81.7832 5.48546 81.7832 5.48548 81.7832 5.48551C81.7832 5.48553 81.7832 5.48556 81.7832 5.48558C81.7832 5.48561 81.7832 5.48563 81.7832 5.48566C81.7832 5.48568 81.7832 5.48571 81.7832 5.48573C81.7832 5.48576 81.7832 5.48578 81.7832 5.48581C81.7832 5.48583 81.7832 5.48586 81.7832 5.48588C81.7832 5.48591 81.7832 5.48593 81.7832 5.48596C81.7832 5.48598 81.7832 5.48601 81.7832 5.48603C81.7832 5.48606 81.7832 5.48608 81.7832 5.48611C81.7832 5.48613 81.7832 5.48616 81.7832 5.48618C81.7832 5.48621 81.7832 5.48623 81.7832 5.48626C81.7832 5.48628 81.7832 5.48631 81.7832 5.48633C81.7832 5.48636 81.7832 5.48638 81.7832 5.48641C81.7832 5.48644 81.7832 5.48646 81.7832 5.48649C81.7832 5.48651 81.7832 5.48654 81.7832 5.48656C81.7832 5.48659 81.7832 5.48661 81.7832 5.48664C81.7832 5.48666 81.7832 5.48669 81.7832 5.48672C81.7832 5.48674 81.7832 5.48677 81.7832 5.48679C81.7832 5.48682 81.7832 5.48684 81.7832 5.48687C81.7832 5.48689 81.7832 5.48692 81.7832 5.48695C81.7832 5.48697 81.7832 5.487 81.7832 5.48702C81.7832 5.48705 81.7832 5.48707 81.7832 5.4871C81.7832 5.48713 81.7832 5.48715 81.7832 5.48718C81.7832 5.4872 81.7832 5.48723 81.7832 5.48725C81.7832 5.48728 81.7832 5.48731 81.7832 5.48733C81.7832 5.48736 81.7832 5.48738 81.7832 5.48741C81.7832 5.48744 81.7832 5.48746 81.7832 5.48749C81.7832 5.48751 81.7832 5.48754 81.7832 5.48757C81.7832 5.48759 81.7832 5.48762 81.7832 5.48764C81.7832 5.48767 81.7832 5.4877 81.7832 5.48772C81.7832 5.48775 81.7832 5.48777 81.7832 5.4878C81.7832 5.48783 81.7832 5.48785 81.7832 5.48788C81.7832 5.48791 81.7832 5.48793 81.7832 5.48796C81.7832 5.48798 81.7832 5.48801 81.7832 5.48804C81.7832 5.48806 81.7832 5.48809 81.7832 5.48812C81.7832 5.48814 81.7832 5.48817 81.7832 5.48819C81.7832 5.48822 81.7832 5.48825 81.7832 5.48827C81.7832 5.4883 81.7832 5.48833 81.7832 5.48835C81.7832 5.48838 81.7832 5.48841 81.7832 5.48843C81.7832 5.48846 81.7832 5.48849 81.7832 5.48851C81.7832 5.48854 81.7832 5.48857 81.7832 5.48859C81.7832 5.48862 81.7832 5.48865 81.7832 5.48867C81.7832 5.4887 81.7832 5.48872 81.7832 5.48875C81.7832 5.48878 81.7832 5.48881 81.7832 5.48883C81.7832 5.48886 81.7832 5.48889 81.7832 5.48891C81.7832 5.48894 81.7832 5.48897 81.7832 5.48899C81.7832 5.48902 81.7832 5.48905 81.7832 5.48907C81.7832 5.4891 81.7832 5.48913 81.7832 5.48915C81.7832 5.48918 81.7832 5.48921 81.7832 5.48923C81.7832 5.48926 81.7832 5.48929 81.7832 5.48932C81.7832 5.48934 81.7832 5.48937 81.7832 5.4894C81.7832 5.48942 81.7832 5.48945 81.7832 5.48948C81.7832 5.4895 81.7832 5.48953 81.7832 5.48956C81.7832 5.48959 81.7832 5.48961 81.7832 5.48964C81.7832 5.48967 81.7832 5.48969 81.7832 5.48972C81.7832 5.48975 81.7832 5.48978 81.7832 5.4898C81.7832 5.48983 81.7832 5.48986 81.7832 5.48989C81.7832 5.48991 81.7832 5.48994 81.7832 5.48997C81.7832 5.49 81.7832 5.49002 81.7832 5.49005C81.7832 5.49008 81.7832 5.4901 81.7832 5.49013C81.7832 5.49016 81.7832 5.49019 81.7832 5.49021C81.7832 5.49024 81.7832 5.49027 81.7832 5.4903C81.7832 5.49032 81.7832 5.49035 81.7832 5.49038C81.7832 5.49041 81.7832 5.49043 81.7832 5.49046C81.7832 5.49049 81.7832 5.49052 81.7832 5.49055C81.7832 5.49057 81.7832 5.4906 81.7832 5.49063C81.7832 5.49066 81.7832 5.49068 81.7832 5.49071C81.7832 5.49074 81.7832 5.49077 81.7832 5.4908C81.7832 5.49082 81.7832 5.49085 81.7832 5.49088C81.7832 5.49091 81.7832 5.49093 81.7832 5.49096C81.7832 5.49099 81.7832 5.49102 81.7832 5.49105C81.7832 5.49107 81.7832 5.4911 81.7832 5.49113C81.7832 5.49116 81.7832 5.49119 81.7832 5.49121C81.7832 5.49124 81.7832 5.49127 81.7832 5.4913C81.7832 5.49133 81.7832 5.49135 81.7832 5.49138C81.7832 5.49141 81.7832 5.49144 81.7832 5.49147C81.7832 5.49149 81.7832 5.49152 81.7832 5.49155C81.7832 5.49158 81.7832 5.49161 81.7832 5.49164C81.7832 5.49166 81.7832 5.49169 81.7832 5.49172C81.7832 5.49175 81.7832 5.49178 81.7832 5.49181C81.7832 5.49183 81.7832 5.49186 81.7832 5.49189C81.7832 5.49192 81.7832 5.49195 81.7832 5.49198C81.7832 5.492 81.7832 5.49203 81.7832 5.49206C81.7832 5.49209 81.7832 5.49212 81.7832 5.49215C81.7832 5.49218 81.7832 5.4922 81.7832 5.49223C81.7832 5.49226 81.7832 5.49229 81.7832 5.49232C81.7832 5.49235 81.7832 5.49238 81.7832 5.4924C81.7832 5.49243 81.7832 5.49246 81.7832 5.49249C81.7832 5.49252 81.7832 5.49255 81.7832 5.49258C81.7832 5.49261 81.7832 5.49263 81.7832 5.49266C81.7832 5.49269 81.7832 5.49272 81.7832 5.49275C81.7832 5.49278 81.7832 5.49281 81.7832 5.49284C81.7832 5.49286 81.7832 5.49289 81.7832 5.49292C81.7832 5.49295 81.7832 5.49298 81.7832 5.49301C81.7832 5.49304 81.7832 5.49307 81.7832 5.4931C81.7832 5.49313 81.7832 5.49315 81.7832 5.49318C81.7832 5.49321 81.7832 5.49324 81.7832 5.49327C81.7832 5.4933 81.7832 5.49333 81.7832 5.49336C81.7832 5.49339 81.7832 5.49342 81.7832 5.49345C81.7832 5.49347 81.7832 5.4935 81.7832 5.49353C81.7832 5.49356 81.7832 5.49359 81.7832 5.49362C81.7832 5.49365 81.7832 5.49368 81.7832 5.49371C81.7832 5.49374 81.7832 5.49377 81.7832 5.4938C81.7832 5.49383 81.7832 5.49386 81.7832 5.49389C81.7832 5.49391 81.7832 5.49394 81.7832 5.49397C81.7832 5.494 81.7832 5.49403 81.7832 5.49406C81.7832 5.49409 81.7832 5.49412 81.7832 5.49415C81.7832 5.49418 81.7832 5.49421 81.7832 5.49424C81.7832 5.49427 81.7832 5.4943 81.7832 5.49433C81.7832 5.49436 81.7832 5.49439 81.7832 5.49442C81.7832 5.49445 81.7832 5.49448 81.7832 5.49451C81.7832 5.49454 81.7832 5.49457 81.7832 5.4946C81.7832 5.49463 81.7832 5.49465 81.7832 5.49468C81.7832 5.49471 81.7832 5.49474 81.7832 5.49477C81.7832 5.4948 81.7832 5.49483 81.7832 5.49486C81.7832 5.49489 81.7832 5.49492 81.7832 5.49495C81.7832 5.49498 81.7832 5.49501 81.7832 5.49504C81.7832 5.49507 81.7832 5.4951 81.7832 5.49513C81.7832 5.49516 81.7832 5.49519 81.7832 5.49522C81.7832 5.49525 81.7832 5.49528 81.7832 5.49531C81.7832 5.49534 81.7832 5.49537 81.7832 5.4954C81.7832 5.49543 81.7832 5.49546 81.7832 5.4955C81.7832 5.49553 81.7832 5.49556 81.7832 5.49559C81.7832 5.49562 81.7832 5.49565 81.7832 5.49568C81.7832 5.49571 81.7832 5.49574 81.7832 5.49577C81.7832 5.4958 81.7832 5.49583 81.7832 5.49586C81.7832 5.49589 81.7832 5.49592 81.7832 5.49595C81.7832 5.49598 81.7832 5.49601 81.7832 5.49604C81.7832 5.49607 81.7832 5.4961 81.7832 5.49613C81.7832 5.49616 81.7832 5.49619 81.7832 5.49622C81.7832 5.49626 81.7832 5.49629 81.7832 5.49632C81.7832 5.49635 81.7832 5.49638 81.7832 5.49641C81.7832 5.49644 81.7832 5.49647 81.7832 5.4965C81.7832 5.49653 81.7832 5.49656 81.7832 5.49659C81.7832 5.49662 81.7832 5.49665 81.7832 5.49669C81.7832 5.49672 81.7832 5.49675 81.7832 5.49678C81.7832 5.49681 81.7832 5.49684 81.7832 5.49687C81.7832 5.4969 81.7832 5.49693 81.7832 5.49696C81.7832 5.49699 81.7832 5.49702 81.7832 5.49706C81.7832 5.49709 81.7832 5.49712 81.7832 5.49715C81.7832 5.49718 81.7832 5.49721 81.7832 5.49724C81.7832 5.49727 81.7832 5.4973 81.7832 5.49734C81.7832 5.49737 81.7832 5.4974 81.7832 5.49743C81.7832 5.49746 81.7832 5.49749 81.7832 5.49752C81.7832 5.49755 81.7832 5.49758 81.7832 5.49762C81.7832 5.49765 81.7832 5.49768 81.7832 5.49771C81.7832 5.49774 81.7832 5.49777 81.7832 5.4978C81.7832 5.49783 81.7832 5.49787 81.7832 5.4979C81.7832 5.49793 81.7832 5.49796 81.7832 5.49799C81.7832 5.49802 81.7832 5.49805 81.7832 5.49809C81.7832 5.49812 81.7832 5.49815 81.7832 5.49818C81.7832 5.49821 81.7832 5.49824 81.7832 5.49828C81.7832 5.49831 81.7832 5.49834 81.7832 5.49837C81.7832 5.4984 81.7832 5.49843 81.7832 5.49846C81.7832 5.4985 81.7832 5.49853 81.7832 5.49856C81.7832 5.49859 81.7832 5.49862 81.7832 5.49866C81.7832 5.49869 81.7832 5.49872 81.7832 5.49875C81.7832 5.49878 81.7832 5.49881 81.7832 5.49885C81.7832 5.49888 81.7832 5.49891 81.7832 5.49894C81.7832 5.49897 81.7832 5.49901 81.7832 5.49904C81.7832 5.49907 81.7832 5.4991 81.7832 5.49913C81.7832 5.49916 81.7832 5.4992 81.7832 5.49923C81.7832 5.49926 81.7832 5.49929 81.7832 5.49932C81.7832 5.49936 81.7832 5.49939 81.7832 5.49942C81.7832 5.49945 81.7832 5.49949 81.7832 5.49952C81.7832 5.49955 81.7832 5.49958 81.7832 5.49961C81.7832 5.49965 81.7832 5.49968 81.7832 5.49971C81.7832 5.49974 81.7832 5.49978 81.7832 5.49981C81.7832 5.49984 81.7832 5.49987 81.7832 5.4999C81.7832 5.49994 81.7832 5.49997 81.7832 5.5C81.7832 5.50003 81.7832 5.50007 81.7832 5.5001C81.7832 5.50013 81.7832 5.50016 81.7832 5.5002C81.7832 5.50023 81.7832 5.50026 81.7832 5.50029C81.7832 5.50033 81.7832 5.50036 81.7832 5.50039C81.7832 5.50042 81.7832 5.50046 81.7832 5.50049C81.7832 5.50052 81.7832 5.50055 81.7832 5.50059C81.7832 5.50062 81.7832 5.50065 81.7832 5.50068C81.7832 5.50072 81.7832 5.50075 81.7832 5.50078C81.7832 5.50082 81.7832 5.50085 81.7832 5.50088C81.7832 5.50091 81.7832 5.50095 81.7832 5.50098C81.7832 5.50101 81.7832 5.50104 81.7832 5.50108C81.7832 5.50111 81.7832 5.50114 81.7832 5.50118C81.7832 5.50121 81.7832 5.50124 81.7832 5.50127C81.7832 5.50131 81.7832 5.50134 81.7832 5.50137C81.7832 5.50141 81.7832 5.50144 81.7832 5.50147C81.7832 5.50151 81.7832 5.50154 81.7832 5.50157C81.7832 5.50161 81.7832 5.50164 81.7832 5.50167C81.7832 5.5017 81.7832 5.50174 81.7832 5.50177C81.7832 5.5018 81.7832 5.50184 81.7832 5.50187C81.7832 5.5019 81.7832 5.50194 81.7832 5.50197C81.7832 5.502 81.7832 5.50204 81.7832 5.50207C81.7832 5.5021 81.7832 5.50214 81.7832 5.50217C81.7832 5.5022 81.7832 5.50224 81.7832 5.50227C81.7832 5.5023 81.7832 5.50234 81.7832 5.50237C81.7832 5.5024 81.7832 5.50244 81.7832 5.50247C81.7832 5.5025 81.7832 5.50254 81.7832 5.50257C81.7832 5.5026 81.7832 5.50264 81.7832 5.50267C81.7832 5.50271 81.7832 5.50274 81.7832 5.50277C81.7832 5.50281 81.7832 5.50284 81.7832 5.50287C81.7832 5.50291 81.7832 5.50294 81.7832 5.50297C81.7832 5.50301 81.7832 5.50304 81.7832 5.50308C81.7832 5.50311 81.7832 5.50314 81.7832 5.50318C81.7832 5.50321 81.7832 5.50324 81.7832 5.50328C81.7832 5.50331 81.7832 5.50335 81.7832 5.50338C81.7832 5.50341 81.7832 5.50345 81.7832 5.50348C81.7832 5.50352 81.7832 5.50355 81.7832 5.50358C81.7832 5.50362 81.7832 5.50365 81.7832 5.50369C81.7832 5.50372 81.7832 5.50375 81.7832 5.50379C81.7832 5.50382 81.7832 5.50386 81.7832 5.50389C81.7832 5.50392 81.7832 5.50396 81.7832 5.50399C81.7832 5.50403 81.7832 5.50406 81.7832 5.50409C81.7832 5.50413 81.7832 5.50416 81.7832 5.5042C81.7832 5.50423 81.7832 5.50427 81.7832 5.5043C81.7832 5.50433 81.7832 5.50437 81.7832 5.5044C81.7832 5.50444 81.7832 5.50447 81.7832 5.50451C81.7832 5.50454 81.7832 5.50458 81.7832 5.50461C81.7832 5.50464 81.7832 5.50468 81.7832 5.50471C81.7832 5.50475 81.7832 5.50478 81.7832 5.50482C81.7832 5.50485 81.7832 5.50489 81.7832 5.50492C81.7832 5.50495 81.7832 5.50499 81.7832 5.50502C81.7832 5.50506 81.7832 5.50509 81.7832 5.50513C81.7832 5.50516 81.7832 5.5052 81.7832 5.50523C81.7832 5.50527 81.7832 5.5053 81.7832 5.50534C81.7832 5.50537 81.7832 5.50541 81.7832 5.50544C81.7832 5.50547 81.7832 5.50551 81.7832 5.50554C81.7832 5.50558 81.7832 5.50561 81.7832 5.50565C81.7832 5.50568 81.7832 5.50572 81.7832 5.50575C81.7832 5.50579 81.7832 5.50582 81.7832 5.50586C81.7832 5.50589 81.7832 5.50593 81.7832 5.50596C81.7832 5.506 81.7832 5.50603 81.7832 5.50607C81.7832 5.5061 81.7832 5.50614 81.7832 5.50617C81.7832 5.50621 81.7832 5.50624 81.7832 5.50628C81.7832 5.50631 81.7832 5.50635 81.7832 5.50638C81.7832 5.50642 81.7832 5.50645 81.7832 5.50649C81.7832 5.50653 81.7832 5.50656 81.7832 5.5066C81.7832 5.50663 81.7832 5.50667 81.7832 5.5067C81.7832 5.50674 81.7832 5.50677 81.7832 5.50681C81.7832 5.50684 81.7832 5.50688 81.7832 5.50691C81.7832 5.50695 81.7832 5.50698 81.7832 5.50702C81.7832 5.50706 81.7832 5.50709 81.7832 5.50713C81.7832 5.50716 81.7832 5.5072 81.7832 5.50723C81.7832 5.50727 81.7832 5.5073 81.7832 5.50734C81.7832 5.50738 81.7832 5.50741 81.7832 5.50745C81.7832 5.50748 81.7832 5.50752 81.7832 5.50755C81.7832 5.50759 81.7832 5.50762 81.7832 5.50766C81.7832 5.5077 81.7832 5.50773 81.7832 5.50777C81.7832 5.5078 81.7832 5.50784 81.7832 5.50788C81.7832 5.50791 81.7832 5.50795 81.7832 5.50798C81.7832 5.50802 81.7832 5.50805 81.7832 5.50809C81.7832 5.50813 81.7832 5.50816 81.7832 5.5082C81.7832 5.50823 81.7832 5.50827 81.7832 5.50831C81.7832 5.50834 81.7832 5.50838 81.7832 5.50841C81.7832 5.50845 81.7832 5.50849 81.7832 5.50852C81.7832 5.50856 81.7832 5.50859 81.7832 5.50863C81.7832 5.50867 81.7832 5.5087 81.7832 5.50874C81.7832 5.50878 81.7832 5.50881 81.7832 5.50885C81.7832 5.50888 81.7832 5.50892 81.7832 5.50896C81.7832 5.50899 81.7832 5.50903 81.7832 5.50907C81.7832 5.5091 81.7832 5.50914 81.7832 5.50917C81.7832 5.50921 81.7832 5.50925 81.7832 5.50928C81.7832 5.50932 81.7832 5.50936 81.7832 5.50939C81.7832 5.50943 81.7832 5.50947 81.7832 5.5095C81.7832 5.50954 81.7832 5.50957 81.7832 5.50961C81.7832 5.50965 81.7832 5.50968 81.7832 5.50972C81.7832 5.50976 81.7832 5.50979 81.7832 5.50983C81.7832 5.50987 81.7832 5.5099 81.7832 5.50994C81.7832 5.50998 81.7832 5.51001 81.7832 5.51005C81.7832 5.51009 81.7832 5.51012 81.7832 5.51016C81.7832 5.5102 81.7832 5.51023 81.7832 5.51027C81.7832 5.51031 81.7832 5.51034 81.7832 5.51038C81.7832 5.51042 81.7832 5.51046 81.7832 5.51049C81.7832 5.51053 81.7832 5.51057 81.7832 5.5106C81.7832 5.51064 81.7832 5.51068 81.7832 5.51071C81.7832 5.51075 81.7832 5.51079 81.7832 5.51082C81.7832 5.51086 81.7832 5.5109 81.7832 5.51094C81.7832 5.51097 81.7832 5.51101 81.7832 5.51105C81.7832 5.51108 81.7832 5.51112 81.7832 5.51116C81.7832 5.5112 81.7832 5.51123 81.7832 5.51127C81.7832 5.51131 81.7832 5.51134 81.7832 5.51138C81.7832 5.51142 81.7832 5.51146 81.7832 5.51149C81.7832 5.51153 81.7832 5.51157 81.7832 5.51161C81.7832 5.51164 81.7832 5.51168 81.7832 5.51172C81.7832 5.51175 81.7832 5.51179 81.7832 5.51183C81.7832 5.51187 81.7832 5.5119 81.7832 5.51194C81.7832 5.51198 81.7832 5.51202 81.7832 5.51205C81.7832 5.51209 81.7832 5.51213 81.7832 5.51217C81.7832 5.5122 81.7832 5.51224 81.7832 5.51228C81.7832 5.51232 81.7832 5.51235 81.7832 5.51239C81.7832 5.51243 81.7832 5.51247 81.7832 5.51251C81.7832 5.51254 81.7832 5.51258 81.7832 5.51262C81.7832 5.51266 81.7832 5.51269 81.7832 5.51273C81.7832 5.51277 81.7832 5.51281 81.7832 5.51285C81.7832 5.51288 81.7832 5.51292 81.7832 5.51296C81.7832 5.513 81.7832 5.51303 81.7832 5.51307C81.7832 5.51311 81.7832 5.51315 81.7832 5.51319C81.7832 5.51322 81.7832 5.51326 81.7832 5.5133C81.7832 5.51334 81.7832 5.51338 81.7832 5.51341C81.7832 5.51345 81.7832 5.51349 81.7832 5.51353C81.7832 5.51357 81.7832 5.5136 81.7832 5.51364C81.7832 5.51368 81.7832 5.51372 81.7832 5.51376C81.7832 5.5138 81.7832 5.51383 81.7832 5.51387C81.7832 5.51391 81.7832 5.51395 81.7832 5.51399C81.7832 5.51402 81.7832 5.51406 81.7832 5.5141C81.7832 5.51414 81.7832 5.51418 81.7832 5.51422C81.7832 5.51425 81.7832 5.51429 81.7832 5.51433C81.7832 5.51437 81.7832 5.51441 81.7832 5.51445C81.7832 5.51449 81.7832 5.51452 81.7832 5.51456C81.7832 5.5146 81.7832 5.51464 81.7832 5.51468C81.7832 5.51472 81.7832 5.51475 81.7832 5.51479C81.7832 5.51483 81.7832 5.51487 81.7832 5.51491C81.7832 5.51495 81.7832 5.51499 81.7832 5.51502C81.7832 5.51506 81.7832 5.5151 81.7832 5.51514C81.7832 5.51518 81.7832 5.51522 81.7832 5.51526C81.7832 5.5153 81.7832 5.51533 81.7832 5.51537C81.7832 5.51541 81.7832 5.51545 81.7832 5.51549C81.7832 5.51553 81.7832 5.51557 81.7832 5.51561C81.7832 5.51565 81.7832 5.51568 81.7832 5.51572C81.7832 5.51576 81.7832 5.5158 81.7832 5.51584C81.7832 5.51588 81.7832 5.51592 81.7832 5.51596C81.7832 5.516 81.7832 5.51604 81.7832 5.51607C81.7832 5.51611 81.7832 5.51615 81.7832 5.51619C81.7832 5.51623 81.7832 5.51627 81.7832 5.51631C81.7832 5.51635 81.7832 5.51639 81.7832 5.51643C81.7832 5.51647 81.7832 5.51651 81.7832 5.51654C81.7832 5.51658 81.7832 5.51662 81.7832 5.51666C81.7832 5.5167 81.7832 5.51674 81.7832 5.51678C81.7832 5.51682 81.7832 5.51686 81.7832 5.5169C81.7832 5.51694 81.7832 5.51698 81.7832 5.51702C81.7832 5.51706 81.7832 5.5171 81.7832 5.51713C81.7832 5.51717 81.7832 5.51721 81.7832 5.51725C81.7832 5.51729 81.7832 5.51733 81.7832 5.51737C81.7832 5.51741 81.7832 5.51745 81.7832 5.51749C81.7832 5.51753 81.7832 5.51757 81.7832 5.51761C81.7832 5.51765 81.7832 5.51769 81.7832 5.51773C81.7832 5.51777 81.7832 5.51781 81.7832 5.51785C81.7832 5.51789 81.7832 5.51793 81.7832 5.51797C81.7832 5.51801 81.7832 5.51805 81.7832 5.51809C81.7832 5.51813 81.7832 5.51817 81.7832 5.51821C81.7832 5.51825 81.7832 5.51829 81.7832 5.51833C81.7832 5.51837 81.7832 5.51841 81.7832 5.51845C81.7832 5.51849 81.7832 5.51853 81.7832 5.51857C81.7832 5.51861 81.7832 5.51865 81.7832 5.51869C81.7832 5.51873 81.7832 5.51877 81.7832 5.51881C81.7832 5.51885 81.7832 5.51889 81.7832 5.51893C81.7832 5.51897 81.7832 5.51901 81.7832 5.51905C81.7832 5.51909 81.7832 5.51913 81.7832 5.51917C81.7832 5.51921 81.7832 5.51925 81.7832 5.51929C81.7832 5.51933 81.7832 5.51937 81.7832 5.51941C81.7832 5.51945 81.7832 5.51949 81.7832 5.51953C81.7832 5.51957 81.7832 5.51961 81.7832 5.51965C81.7832 5.51969 81.7832 5.51973 81.7832 5.51977C81.7832 5.51981 81.7832 5.51985 81.7832 5.51989C81.7832 5.51993 81.7832 5.51997 81.7832 5.52002C81.7832 5.52006 81.7832 5.5201 81.7832 5.52014C81.7832 5.52018 81.7832 5.52022 81.7832 5.52026C81.7832 5.5203 81.7832 5.52034 81.7832 5.52038C81.7832 5.52042 81.7832 5.52046 81.7832 5.5205C81.7832 5.52054 81.7832 5.52058 81.7832 5.52063C81.7832 5.52067 81.7832 5.52071 81.7832 5.52075C81.7832 5.52079 81.7832 5.52083 81.7832 5.52087C81.7832 5.52091 81.7832 5.52095 81.7832 5.52099C81.7832 5.52103 81.7832 5.52107 81.7832 5.52112C81.7832 5.52116 81.7832 5.5212 81.7832 5.52124C81.7832 5.52128 81.7832 5.52132 81.7832 5.52136C81.7832 5.5214 81.7832 5.52144 81.7832 5.52148C81.7832 5.52153 81.7832 5.52157 81.7832 5.52161C81.7832 5.52165 81.7832 5.52169 81.7832 5.52173C81.7832 5.52177 81.7832 5.52181 81.7832 5.52186C81.7832 5.5219 81.7832 5.52194 81.7832 5.52198C81.7832 5.52202 81.7832 5.52206 81.7832 5.5221C81.7832 5.52214 81.7832 5.52219 81.7832 5.52223C81.7832 5.52227 81.7832 5.52231 81.7832 5.52235C81.7832 5.52239 81.7832 5.52243 81.7832 5.52248C81.7832 5.52252 81.7832 5.52256 81.7832 5.5226C81.7832 5.52264 81.7832 5.52268 81.7832 5.52272C81.7832 5.52277 81.7832 5.52281 81.7832 5.52285C81.7832 5.52289 81.7832 5.52293 81.7832 5.52297C81.7832 5.52302 81.7832 5.52306 81.7832 5.5231C81.7832 5.52314 81.7832 5.52318 81.7832 5.52322C81.7832 5.52327 81.7832 5.52331 81.7832 5.52335C81.7832 5.52339 81.7832 5.52343 81.7832 5.52347C81.7832 5.52352 81.7832 5.52356 81.7832 5.5236C81.7832 5.52364 81.7832 5.52368 81.7832 5.52372C81.7832 5.52377 81.7832 5.52381 81.7832 5.52385C81.7832 5.52389 81.7832 5.52393 81.7832 5.52398C81.7832 5.52402 81.7832 5.52406 81.7832 5.5241C81.7832 5.52414 81.7832 5.52419 81.7832 5.52423C81.7832 5.52427 81.7832 5.52431 81.7832 5.52435C81.7832 5.5244 81.7832 5.52444 81.7832 5.52448C81.7832 5.52452 81.7832 5.52457 81.7832 5.52461C81.7832 5.52465 81.7832 5.52469 81.7832 5.52473C81.7832 5.52478 81.7832 5.52482 81.7832 5.52486C81.7832 5.5249 81.7832 5.52495 81.7832 5.52499C81.7832 5.52503 81.7832 5.52507 81.7832 5.52512C81.7832 5.52516 81.7832 5.5252 81.7832 5.52524C81.7832 5.52528 81.7832 5.52533 81.7832 5.52537C81.7832 5.52541 81.7832 5.52545 81.7832 5.5255C81.7832 5.52554 81.7832 5.52558 81.7832 5.52562C81.7832 5.52567 81.7832 5.52571 81.7832 5.52575C81.7832 5.5258 81.7832 5.52584 81.7832 5.52588C81.7832 5.52592 81.7832 5.52597 81.7832 5.52601C81.7832 5.52605 81.7832 5.52609 81.7832 5.52614C81.7832 5.52618 81.7832 5.52622 81.7832 5.52627C81.7832 5.52631 81.7832 5.52635 81.7832 5.52639C81.7832 5.52644 81.7832 5.52648 81.7832 5.52652C81.7832 5.52656 81.7832 5.52661 81.7832 5.52665C81.7832 5.52669 81.7832 5.52674 81.7832 5.52678C81.7832 5.52682 81.7832 5.52687 81.7832 5.52691C81.7832 5.52695 81.7832 5.52699 81.7832 5.52704C81.7832 5.52708 81.7832 5.52712 81.7832 5.52717C81.7832 5.52721 81.7832 5.52725 81.7832 5.5273C81.7832 5.52734 81.7832 5.52738 81.7832 5.52743C81.7832 5.52747 81.7832 5.52751 81.7832 5.52756C81.7832 5.5276 81.7832 5.52764 81.7832 5.52768C81.7832 5.52773 81.7832 5.52777 81.7832 5.52781C81.7832 5.52786 81.7832 5.5279 81.7832 5.52794C81.7832 5.52799 81.7832 5.52803 81.7832 5.52807C81.7832 5.52812 81.7832 5.52816 81.7832 5.52821C81.7832 5.52825 81.7832 5.52829 81.7832 5.52834C81.7832 5.52838 81.7832 5.52842 81.7832 5.52847C81.7832 5.52851 81.7832 5.52855 81.7832 5.5286C81.7832 5.52864 81.7832 5.52868 81.7832 5.52873C81.7832 5.52877 81.7832 5.52882 81.7832 5.52886C81.7832 5.5289 81.7832 5.52895 81.7832 5.52899C81.7832 5.52903 81.7832 5.52908 81.7832 5.52912C81.7832 5.52916 81.7832 5.52921 81.7832 5.52925C81.7832 5.5293 81.7832 5.52934 81.7832 5.52938C81.7832 5.52943 81.7832 5.52947 81.7832 5.52952C81.7832 5.52956 81.7832 5.5296 81.7832 5.52965C81.7832 5.52969 81.7832 5.52974 81.7832 5.52978C81.7832 5.52982 81.7832 5.52987 81.7832 5.52991C81.7832 5.52996 81.7832 5.53 81.7832 5.53004C81.7832 5.53009 81.7832 5.53013 81.7832 5.53018C81.7832 5.53022 81.7832 5.53026 81.7832 5.53031C81.7832 5.53035 81.7832 5.5304 81.7832 5.53044C81.7832 5.53048 81.7832 5.53053 81.7832 5.53057C81.7832 5.53062 81.7832 5.53066 81.7832 5.53071C81.7832 5.53075 81.7832 5.53079 81.7832 5.53084C81.7832 5.53088 81.7832 5.53093 81.7832 5.53097C81.7832 5.53102 81.7832 5.53106 81.7832 5.53111C81.7832 5.53115 81.7832 5.53119 81.7832 5.53124C81.7832 5.53128 81.7832 5.53133 81.7832 5.53137C81.7832 5.53142 81.7832 5.53146 81.7832 5.53151C81.7832 5.53155 81.7832 5.5316 81.7832 5.53164C81.7832 5.53168 81.7832 5.53173 81.7832 5.53177C81.7832 5.53182 81.7832 5.53186 81.7832 5.53191C81.7832 5.53195 81.7832 5.532 81.7832 5.53204C81.7832 5.53209 81.7832 5.53213 81.7832 5.53218C81.7832 5.53222 81.7832 5.53227 81.7832 5.53231C81.7832 5.53236 81.7832 5.5324 81.7832 5.53245C81.7832 5.53249 81.7832 5.53254 81.7832 5.53258C81.7832 5.53262 81.7832 5.53267 81.7832 5.53271C81.7832 5.53276 81.7832 5.5328 81.7832 5.53285C81.7832 5.53289 81.7832 5.53294 81.7832 5.53298C81.7832 5.53303 81.7832 5.53308 81.7832 5.53312C81.7832 5.53317 81.7832 5.53321 81.7832 5.53326C81.7832 5.5333 81.7832 5.53335 81.7832 5.53339C81.7832 5.53344 81.7832 5.53348 81.7832 5.53353C81.7832 5.53357 81.7832 5.53362 81.7832 5.53366C81.7832 5.53371 81.7832 5.53375 81.7832 5.5338C81.7832 5.53384 81.7832 5.53389 81.7832 5.53393C81.7832 5.53398 81.7832 5.53403 81.7832 5.53407C81.7832 5.53412 81.7832 5.53416 81.7832 5.53421C81.7832 5.53425 81.7832 5.5343 81.7832 5.53434C81.7832 5.53439 81.7832 5.53443 81.7832 5.53448C81.7832 5.53453 81.7832 5.53457 81.7832 5.53462C81.7832 5.53466 81.7832 5.53471 81.7832 5.53475C81.7832 5.5348 81.7832 5.53484 81.7832 5.53489C81.7832 5.53494 81.7832 5.53498 81.7832 5.53503C81.7832 5.53507 81.7832 5.53512 81.7832 5.53517H83.7832ZM47.3477 5.48243V5.50001H49.3477V5.48243H47.3477ZM47.3477 5.50001V5.55274H49.3477V5.50001H47.3477ZM49.3477 5.55274V5.48243H47.3477V5.55274H49.3477ZM3.46939 4.00002L16.9759 4.00001L16.9759 2.00001L3.46938 2.00002L3.46939 4.00002ZM21.71 13.9863L21.1976 19.3206L23.1885 19.5118L23.7008 14.1775L21.71 13.9863ZM14.6122 27H3.46939V29H14.6122V27ZM3.46939 27C2.83955 27 2.54715 26.8761 2.41076 26.7791C2.29294 26.6953 2.18452 26.5565 2.10624 26.2439C2.02208 25.908 1.99535 25.4597 2.00067 24.8536C2.00328 24.5566 2.01292 24.2446 2.02243 23.9029C2.0318 23.5658 2.04084 23.2056 2.04084 22.834H0.0408413C0.0408413 23.1756 0.0325297 23.5118 0.0231988 23.8473C0.0139938 24.1782 0.00357028 24.5149 0.000749454 24.836C-0.00478532 25.466 0.0161614 26.131 0.166173 26.7299C0.322053 27.3522 0.634294 27.9699 1.25155 28.4089C1.85024 28.8348 2.60734 29 3.46939 29V27ZM20.0193 22.4387C19.2762 23.3926 18.2731 24.5763 17.2297 25.5122C16.7081 25.9801 16.1996 26.3649 15.7291 26.6282C15.2497 26.8965 14.8784 27 14.6122 27V29C15.3539 29 16.0715 28.7285 16.7059 28.3735C17.3492 28.0134 17.9793 27.5265 18.5652 27.001C19.7367 25.9502 20.8237 24.6606 21.5971 23.6677L20.0193 22.4387ZM16.9759 4.00001C17.1342 4.00001 17.4457 4.10406 17.9112 4.57564C18.3568 5.02698 18.8188 5.69044 19.2716 6.48834C20.1737 8.0775 20.9364 10.0129 21.4095 11.3352L23.2926 10.6615C22.8074 9.30524 21.9988 7.24144 21.011 5.50108C20.519 4.63421 19.9563 3.80033 19.3345 3.17051C18.7327 2.56093 17.9339 2.00001 16.9759 2.00001V4.00001ZM3.46939 2.00002C2.66557 2.00002 1.95718 2.09551 1.38431 2.38165C0.751871 2.69754 0.375103 3.19897 0.184326 3.79151C0.0133541 4.32254 -0.00472925 4.91845 0.000761374 5.46472C0.00730929 6.11619 0.0408413 6.57738 0.0408413 7.3358H2.04084C2.04084 6.66766 2.00497 5.87359 2.00066 5.44462C1.99529 4.91045 2.02489 4.60073 2.08809 4.40446C2.13147 4.26969 2.17536 4.22214 2.278 4.17087C2.44021 4.08985 2.78133 4.00002 3.46939 4.00002V2.00002ZM2.79418 7.04431H18.3265V5.04431H2.79418V7.04431ZM17.3265 6.04431V7.33582H19.3265V6.04431H17.3265ZM18.3265 6.33582H2.79418V8.33582H18.3265V6.33582ZM3.79418 7.33582V6.04431H1.79418V7.33582H3.79418ZM2.79418 10.2731H18.3265V8.27309H2.79418V10.2731ZM17.3265 9.27309V10.5646H19.3265V9.27309H17.3265ZM18.3265 9.56461H2.79418V11.5646H18.3265V9.56461ZM3.79418 10.5646V9.27309H1.79418V10.5646H3.79418ZM2.79418 13.5019H18.3265V11.5019H2.79418V13.5019ZM17.3265 12.5019V13.7934H19.3265V12.5019H17.3265ZM18.3265 12.7934H2.79418V14.7934H18.3265V12.7934ZM3.79418 13.7934V12.5019H1.79418V13.7934H3.79418ZM2.79418 16.7307H18.3265V14.7307H2.79418V16.7307ZM17.3265 15.7307V17.0222H19.3265V15.7307H17.3265ZM18.3265 16.0222H2.79418V18.0222H18.3265V16.0222ZM3.79418 17.0222V15.7307H1.79418V17.0222H3.79418ZM2.79418 19.9594H18.3265V17.9594H2.79418V19.9594ZM17.3265 18.9594V20.251H19.3265V18.9594H17.3265ZM18.3265 19.251H2.79418V21.251H18.3265V19.251ZM3.79418 20.251V18.9594H1.79418V20.251H3.79418ZM2.79418 23.834H18.3265V21.834H2.79418V23.834ZM17.3265 22.834V24.1255H19.3265V22.834H17.3265ZM18.3265 23.1255H2.79418V25.1255H18.3265V23.1255ZM3.79418 24.1255V22.834H1.79418V24.1255H3.79418ZM23.7008 14.1775C23.8131 13.0078 23.7015 11.8043 23.2926 10.6615L21.4095 11.3352C21.7067 12.1658 21.798 13.0696 21.71 13.9863L23.7008 14.1775ZM21.1976 19.3206C21.086 20.4827 20.6988 21.5662 20.0193 22.4387L21.5971 23.6677C22.5465 22.4488 23.0467 20.9884 23.1885 19.5118L21.1976 19.3206ZM94.964 26H87.368V28H94.964V26ZM88.368 27V26.712H86.368V27H88.368ZM88.368 26.712C88.368 26.2857 88.4603 26.1096 88.5075 26.049C88.5359 26.0126 88.6086 25.934 88.874 25.9068L88.67 23.9172C87.9994 23.986 87.3701 24.2554 86.9305 24.819C86.5097 25.3584 86.368 26.0344 86.368 26.712H88.368ZM88.8291 25.9104L90.089 25.8384L89.9749 23.8416L88.715 23.9136L88.8291 25.9104ZM91.032 24.84V11.34H89.032V24.84H91.032ZM90.1449 10.3464L88.5609 10.1664L88.3351 12.1536L89.9191 12.3336L90.1449 10.3464ZM88.5413 10.1644C88.511 10.1615 88.4929 10.1568 88.484 10.154C88.4795 10.1525 88.4768 10.1514 88.4756 10.1508C88.4749 10.1505 88.4745 10.1503 88.4743 10.1502C88.4742 10.1501 88.4741 10.1501 88.4741 10.15C88.474 10.15 88.474 10.15 88.474 10.15C88.474 10.15 88.474 10.15 88.474 10.15C88.474 10.15 88.474 10.15 88.474 10.15C88.474 10.15 88.474 10.15 88.474 10.15C88.474 10.15 88.474 10.15 88.474 10.15C88.474 10.15 88.474 10.15 88.474 10.15C88.4739 10.1499 88.4738 10.1499 88.4737 10.1498C88.4734 10.1495 88.4722 10.1485 88.4701 10.1464C88.4662 10.1422 88.457 10.1316 88.4443 10.1102C88.3842 10.0088 88.296 9.74934 88.296 9.21601H86.296C86.296 9.90668 86.3998 10.5833 86.7237 11.1298C87.0835 11.7369 87.6611 12.0906 88.3547 12.1556L88.5413 10.1644ZM87.4077 10.2098L93.8157 9.48976L93.5923 7.50226L87.1843 8.22226L87.4077 10.2098ZM92.704 8.49601V24.768H94.704V8.49601H92.704ZM93.6221 25.7646L96.2501 25.9806L96.4139 23.9874L93.7859 23.7714L93.6221 25.7646ZM95.3377 25.0905C95.4 25.6717 95.302 25.8881 95.2705 25.9345C95.2634 25.945 95.2592 25.9505 95.2374 25.9602C95.2064 25.974 95.1253 26 94.964 26V28C95.7125 28 96.4567 27.7483 96.9255 27.0575C97.35 26.4319 97.408 25.6403 97.3263 24.8775L95.3377 25.0905ZM92.92 4.10401C92.92 4.52323 92.7887 4.82905 92.5289 5.0889L93.9431 6.50311C94.5953 5.85096 94.92 5.02879 94.92 4.10401H92.92ZM92.5289 5.0889C92.3041 5.31373 92.0159 5.44401 91.58 5.44401V7.44401C92.4881 7.44401 93.3039 7.14229 93.9431 6.50311L92.5289 5.0889ZM91.58 5.44401C91.1789 5.44401 90.8756 5.32001 90.6117 5.07005L89.2363 6.52196C89.8844 7.136 90.6851 7.44401 91.58 7.44401V5.44401ZM90.65 5.10826C90.407 4.85178 90.276 4.53976 90.276 4.10401H88.276C88.276 5.01226 88.577 5.82824 89.1981 6.48375L90.65 5.10826ZM90.276 4.10401C90.276 3.6681 90.4063 3.37994 90.6311 3.15511L89.2169 1.7409C88.5777 2.38007 88.276 3.19591 88.276 4.10401H90.276ZM90.6311 3.15511C90.8986 2.88767 91.1958 2.76401 91.58 2.76401V0.764008C90.6682 0.764008 89.8615 1.09635 89.2169 1.7409L90.6311 3.15511ZM91.58 2.76401C91.9988 2.76401 92.2811 2.89412 92.51 3.13575L93.962 1.76026C93.3269 1.08989 92.5052 0.764008 91.58 0.764008V2.76401ZM92.5483 3.17396C92.7899 3.40287 92.92 3.68518 92.92 4.10401H94.92C94.92 3.17883 94.5941 2.35714 93.9237 1.72205L92.5483 3.17396ZM117.81 26H110.322V28H117.81V26ZM111.322 27V26.712H109.322V27H111.322ZM111.322 26.712C111.322 26.2857 111.414 26.1096 111.462 26.049C111.49 26.0126 111.563 25.934 111.828 25.9068L111.624 23.9172C110.954 23.986 110.324 24.2554 109.885 24.819C109.464 25.3584 109.322 26.0344 109.322 26.712H111.322ZM111.783 25.9104L113.043 25.8384L112.929 23.8416L111.669 23.9136L111.783 25.9104ZM113.986 24.84V15.804H111.986V24.84H113.986ZM113.986 15.804C113.986 14.2763 113.676 12.9447 112.886 11.983C112.064 10.9838 110.87 10.556 109.494 10.556V12.556C110.447 12.556 110.998 12.8362 111.341 13.253C111.714 13.7073 111.986 14.4997 111.986 15.804H113.986ZM109.494 10.556C108.429 10.556 107.455 10.7289 106.601 11.1115L107.419 12.9365C107.958 12.6951 108.64 12.556 109.494 12.556V10.556ZM106.628 11.1C105.799 11.4431 104.962 12.0071 104.118 12.7488L105.438 14.2512C106.178 13.601 106.83 13.181 107.393 12.948L106.628 11.1ZM103.778 13.5V24.768H105.778V13.5H103.778ZM104.694 25.7645L107.25 25.9805L107.418 23.9876L104.862 23.7716L104.694 25.7645ZM106.34 25.0905C106.402 25.6717 106.304 25.8881 106.273 25.9345C106.266 25.945 106.261 25.9505 106.24 25.9602C106.209 25.974 106.128 26 105.966 26V28C106.715 28 107.459 27.7483 107.928 27.0575C108.352 26.4319 108.41 25.6403 108.329 24.8775L106.34 25.0905ZM105.966 26H98.4062V28H105.966V26ZM99.4062 27V26.712H97.4062V27H99.4062ZM99.4062 26.712C99.4062 26.4659 99.4248 26.3033 99.4461 26.2057C99.4699 26.0972 99.4822 26.1369 99.4108 26.2185L97.9056 24.9015C97.6663 25.1751 97.5526 25.5028 97.4923 25.7783C97.4297 26.0647 97.4062 26.3821 97.4062 26.712H99.4062ZM99.4343 26.1906C99.5832 26.0074 99.7383 25.9278 99.9457 25.907L99.7467 23.917C98.9941 23.9922 98.3573 24.3446 97.8821 24.9294L99.4343 26.1906ZM99.9033 25.9104L101.163 25.8384L101.049 23.8416L99.7892 23.9136L99.9033 25.9104ZM102.106 24.84V11.484H100.106V24.84H102.106ZM101.219 10.4904L99.6351 10.3104L99.4093 12.2976L100.993 12.4776L101.219 10.4904ZM99.6156 10.3084C99.5852 10.3055 99.5671 10.3008 99.5582 10.298C99.5537 10.2965 99.551 10.2954 99.5498 10.2948C99.5491 10.2945 99.5487 10.2943 99.5485 10.2942C99.5484 10.2941 99.5483 10.2941 99.5483 10.294C99.5483 10.294 99.5482 10.294 99.5482 10.294C99.5482 10.294 99.5482 10.294 99.5482 10.294C99.5482 10.294 99.5482 10.294 99.5482 10.294C99.5482 10.294 99.5482 10.294 99.5482 10.294C99.5482 10.294 99.5483 10.294 99.5482 10.294C99.5482 10.294 99.5482 10.294 99.5482 10.294C99.5481 10.2939 99.5481 10.2939 99.548 10.2938C99.5476 10.2935 99.5464 10.2925 99.5444 10.2904C99.5404 10.2862 99.5312 10.2756 99.5185 10.2542C99.4584 10.1528 99.3702 9.89334 99.3702 9.36001H97.3702C97.3702 10.0507 97.474 10.7273 97.7979 11.2738C98.1577 11.8809 98.7353 12.2346 99.4289 12.2996L99.6156 10.3084ZM98.4927 10.3525L104.325 9.63247L104.08 7.64754L98.2477 8.36754L98.4927 10.3525ZM103.211 8.77314L103.535 11.1851L105.517 10.9189L105.193 8.50687L103.211 8.77314ZM104.526 12.052H104.634V10.052H104.526V12.052ZM105.312 11.7872C107.043 10.1913 108.66 9.49601 110.178 9.49601V7.49601C108 7.49601 105.922 8.50471 103.956 10.3168L105.312 11.7872ZM110.178 9.49601C111.787 9.49601 113.065 10.0085 114.086 11.0101L115.486 9.58194C114.06 8.18348 112.265 7.49601 110.178 7.49601V9.49601ZM114.1 11.0238C115.071 11.9387 115.658 13.4568 115.658 15.804H117.658C117.658 13.1592 116.997 11.0053 115.472 9.56822L114.1 11.0238ZM115.658 15.804V24.768H117.658V15.804H115.658ZM116.573 25.7644L119.093 25.9804L119.264 23.9877L116.744 23.7717L116.573 25.7644ZM118.184 25.0905C118.246 25.6717 118.148 25.8881 118.117 25.9345C118.11 25.945 118.105 25.9505 118.084 25.9602C118.053 25.974 117.972 26 117.81 26V28C118.559 28 119.303 27.7483 119.772 27.0575C120.196 26.4319 120.254 25.6403 120.173 24.8775L118.184 25.0905ZM2.04084 22.834V7.3358H0.0408413V22.834H2.04084Z" fill="#CBD5E1" mask="url(#path-1-outside-1_3_38)"/>
</svg>
