<svg width="25" height="28" viewBox="0 0 25 28" fill="none" xmlns="http://www.w3.org/2000/svg">
<path d="M1 1L17 1" stroke="black" stroke-linecap="round"/>
<path d="M19 4C19.2761 4 19.5 3.77614 19.5 3.5C19.5 3.22386 19.2761 3 19 3V4ZM2 4H19V3H2V4Z" fill="black"/>
<path d="M21 7.25C21.2761 7.25 21.5 7.02614 21.5 6.75C21.5 6.47386 21.2761 6.25 21 6.25V7.25ZM2 7.25H21V6.25H2V7.25Z" fill="black"/>
<path d="M23 10C23.2761 10 23.5 9.77614 23.5 9.5C23.5 9.22386 23.2761 9 23 9V10ZM2 10H23V9H2V10Z" fill="black"/>
<path d="M24 13.25C24.2761 13.25 24.5 13.0261 24.5 12.75C24.5 12.4739 24.2761 12.25 24 12.25V13.25ZM2 13.25H24V12.25H2V13.25Z" fill="black"/>
<path d="M24 16C24.2761 16 24.5 15.7761 24.5 15.5C24.5 15.2239 24.2761 15 24 15V16ZM2 16H24V15H2V16Z" fill="black"/>
<path d="M23 19C23.2761 19 23.5 18.7761 23.5 18.5C23.5 18.2239 23.2761 18 23 18V19ZM2 19H23V18H2V19Z" fill="black"/>
<path d="M22 22C22.2761 22 22.5 21.7761 22.5 21.5C22.5 21.2239 22.2761 21 22 21V22ZM2 22H22V21H2V22Z" fill="black"/>
<path d="M19 25C19.2761 25 19.5 24.7761 19.5 24.5C19.5 24.2239 19.2761 24 19 24V25ZM2 25H19V24H2V25Z" fill="black"/>
<path d="M1 27H16" stroke="black" stroke-linecap="round"/>
</svg>
